<svg width="462" height="462" viewBox="0 0 462 462" fill="none" xmlns="http://www.w3.org/2000/svg">
<path d="M163.784 364.115C163.784 364.115 129.822 345.439 124.073 312.306C118.973 282.918 124.073 270.12 116.708 256.787C116.408 256.239 116.265 255.62 116.292 254.996C116.32 254.373 116.518 253.768 116.865 253.249C117.211 252.73 117.693 252.316 118.259 252.051C118.824 251.786 119.451 251.681 120.072 251.747C141.975 254.235 160.219 275.724 160.219 275.724C160.219 275.724 161.369 202.627 209.835 178.463C251.073 180.104 267.633 178.463 267.633 178.463C267.633 178.463 271.937 200.806 292.31 228.408C307.182 248.554 311.696 272.095 307.754 281.473C316.509 280.67 328.499 264.182 334.881 254.411C335.258 253.84 335.797 253.396 336.429 253.135C337.06 252.874 337.756 252.808 338.425 252.946C339.095 253.084 339.707 253.42 340.184 253.909C340.661 254.399 340.98 255.02 341.101 255.693C345.209 278.554 350.933 341.942 294.58 365.748C230.862 365.727 163.784 364.115 163.784 364.115Z" fill="#FEC272"/>
<path opacity="0.73" d="M172.268 346.739C172.268 346.739 138.965 326.981 139.183 285.799C161.749 292.81 183.434 316.269 183.434 316.269C183.434 316.269 181.976 251.551 207.68 230.999C244.933 234.324 253.209 215.922 253.209 215.922C253.209 215.922 255.513 233.666 275.01 256.446C289.03 272.834 294.729 291.946 291.223 307.275C303.487 305.514 325.395 286.479 325.395 286.479C325.395 286.479 324.54 331.79 296.605 343.195C268.67 354.6 172.268 346.739 172.268 346.739Z" fill="#FF8557"/>
<path d="M259.532 207.818H202.136C197.66 207.818 194.031 211.447 194.031 215.923C194.031 220.399 197.66 224.028 202.136 224.028H259.532C264.008 224.028 267.636 220.399 267.636 215.923C267.636 211.447 264.008 207.818 259.532 207.818Z" fill="#DCECFF"/>
<path d="M161.581 388.306H300.08C316.751 388.306 326.459 369.416 316.721 355.861L230.831 236.295L144.94 355.874C135.202 369.429 144.91 388.306 161.581 388.306Z" fill="#DCECFF"/>
<path d="M256.243 215.922H205.422V285.799H256.243V215.922Z" fill="#DCECFF"/>
<path d="M174.714 369.497H286.949C288.721 369.497 290.459 369.009 291.972 368.085C293.484 367.161 294.712 365.838 295.521 364.261C296.33 362.684 296.688 360.915 296.555 359.147C296.423 357.38 295.806 355.684 294.772 354.245L230.831 265.195L166.891 354.228C165.852 355.667 165.231 357.365 165.096 359.135C164.961 360.905 165.318 362.677 166.128 364.257C166.937 365.837 168.167 367.162 169.682 368.087C171.198 369.011 172.939 369.499 174.714 369.497Z" fill="#7EB8FF"/>
<path d="M202.515 321.912C206.557 321.912 209.834 318.635 209.834 314.594C209.834 310.552 206.557 307.275 202.515 307.275C198.474 307.275 195.197 310.552 195.197 314.594C195.197 318.635 198.474 321.912 202.515 321.912Z" fill="#413F4C"/>
<path d="M259.146 321.912C263.188 321.912 266.465 318.635 266.465 314.594C266.465 310.552 263.188 307.275 259.146 307.275C255.105 307.275 251.828 310.552 251.828 314.594C251.828 318.635 255.105 321.912 259.146 321.912Z" fill="#413F4C"/>
<path d="M230.831 323.113C237.872 323.113 244.698 325.888 244.262 329.611C243.826 333.334 235.653 333.261 230.831 333.261C226.01 333.261 218.999 333.009 217.721 330.124C216.443 327.238 221.782 323.113 230.831 323.113Z" fill="white"/>
<g style="mix-blend-mode:multiply" opacity="0.51">
<path d="M197.459 326.07C197.459 326.07 200.579 328.9 206.149 326.844" stroke="#3389F4" stroke-width="2.99225" stroke-miterlimit="10" stroke-linecap="round"/>
</g>
<g style="mix-blend-mode:multiply" opacity="0.51">
<path d="M264.202 326.07C264.202 326.07 261.082 328.9 255.512 326.844" stroke="#3389F4" stroke-width="2.99225" stroke-miterlimit="10" stroke-linecap="round"/>
</g>
<path d="M244.933 207.818H216.729V295.44H244.933V207.818Z" fill="#7EB8FF"/>
<path d="M216.724 218.881C216.724 218.881 215.087 200.149 195.188 186.898C180.445 177.066 148.873 174.638 155.118 158.638C159.995 146.152 181.044 157.488 195.188 153.051C209.333 148.614 170.131 102.944 185.716 89.9661C201.301 76.9883 210.163 114.118 223.47 110.339C236.777 106.56 256.239 91.8812 267.631 103.436C284.729 120.799 254.85 151.577 263.228 157.984C271.606 164.392 296.01 148.781 301.016 160.284C308.155 176.711 245.501 193.507 244.937 218.881H216.724Z" fill="#7EB8FF"/>
<path d="M303.378 128.977C302.995 129.186 302.559 129.275 302.125 129.232C301.691 129.189 301.28 129.016 300.947 128.735C300.613 128.455 300.372 128.08 300.255 127.66C300.138 127.24 300.151 126.795 300.291 126.382C302.04 121.304 305.036 114.281 309.268 110.339C317.227 102.889 330.641 106.544 328.542 117.346C326.965 125.309 313.885 123.309 303.378 128.977Z" fill="#7EB8FF"/>
<path d="M161.744 134.334C161.988 134.473 162.268 134.535 162.547 134.51C162.826 134.486 163.091 134.376 163.306 134.196C163.521 134.017 163.676 133.775 163.75 133.505C163.824 133.235 163.813 132.948 163.719 132.684C162.608 129.461 160.706 124.99 158.03 122.493C152.973 117.761 144.436 120.082 145.783 126.947C146.762 132.004 155.072 130.735 161.744 134.334Z" fill="#7EB8FF"/>
<path d="M109.209 278.923C109.209 278.923 106.024 272.986 104.703 264.064C103.049 252.895 99.7446 244.435 89.9428 243.012C85.4545 255.571 89.1819 272.695 109.209 278.923Z" fill="#FEC272"/>
<path d="M320.599 233.666C320.599 233.666 317.106 213.622 334.03 204.094C335.355 212.617 333.628 230.708 320.599 233.666Z" fill="#FEC272"/>
<path d="M339.408 341.284C339.408 341.284 350.095 330.884 353.822 310.143C357.55 289.402 372.887 283.555 372.887 283.555C372.887 283.555 366.903 299.7 364.612 317.666C362.705 332.662 348.517 339.424 339.408 341.284Z" fill="#FEC272"/>
<g style="mix-blend-mode:multiply" opacity="0.51">
<path d="M207.68 175.857C207.68 175.857 218.05 184.18 222.868 204.117C226.437 218.886 226.005 243.016 226.005 243.016" stroke="#3389F4" stroke-width="4.27464" stroke-miterlimit="10" stroke-linecap="round"/>
</g>
<g style="mix-blend-mode:multiply" opacity="0.51">
<path d="M248.714 145.83C248.714 145.83 239.515 156.995 236.844 181.976" stroke="#3389F4" stroke-width="4.27464" stroke-miterlimit="10" stroke-linecap="round"/>
</g>
<g style="mix-blend-mode:multiply" opacity="0.51">
<path d="M235.135 221.84V254.37" stroke="#3389F4" stroke-width="4.27464" stroke-miterlimit="10" stroke-linecap="round"/>
</g>
</svg>
