<svg width="462" height="462" viewBox="0 0 462 462" fill="none" xmlns="http://www.w3.org/2000/svg">
<path d="M311.776 411.279H133.036C131.728 411.279 130.65 410.202 130.65 408.894V408.432C130.65 407.124 131.728 406.047 133.036 406.047H311.699C313.007 406.047 314.084 407.124 314.084 408.432V408.894C314.161 410.202 313.084 411.279 311.776 411.279Z" fill="#99ADF9"/>
<path d="M124.11 139.285C123.726 139.285 123.418 138.977 123.418 138.592V134.976C123.418 134.591 123.726 134.283 124.11 134.283C124.495 134.283 124.803 134.591 124.803 134.976V138.592C124.726 138.977 124.418 139.285 124.11 139.285Z" fill="#C5DFFF"/>
<path d="M124.11 171.601C123.726 171.601 123.418 171.293 123.418 170.908V162.829C123.418 162.444 123.726 162.137 124.11 162.137C124.495 162.137 124.803 162.444 124.803 162.829V170.908C124.726 171.293 124.418 171.601 124.11 171.601ZM124.11 155.443C123.726 155.443 123.418 155.135 123.418 154.75V146.671C123.418 146.286 123.726 145.979 124.11 145.979C124.495 145.979 124.803 146.286 124.803 146.671V154.75C124.726 155.135 124.418 155.443 124.11 155.443Z" fill="#C5DFFF"/>
<path d="M133.112 139.285C132.728 139.285 132.42 138.977 132.42 138.592V134.976C132.42 134.591 132.728 134.283 133.112 134.283C133.497 134.283 133.805 134.591 133.805 134.976V138.592C133.805 138.977 133.497 139.285 133.112 139.285Z" fill="#C5DFFF"/>
<path d="M133.112 171.601C132.728 171.601 132.42 171.293 132.42 170.908V162.829C132.42 162.444 132.728 162.137 133.112 162.137C133.497 162.137 133.805 162.444 133.805 162.829V170.908C133.805 171.293 133.497 171.601 133.112 171.601ZM133.112 155.443C132.728 155.443 132.42 155.135 132.42 154.75V146.671C132.42 146.286 132.728 145.979 133.112 145.979C133.497 145.979 133.805 146.286 133.805 146.671V154.75C133.805 155.135 133.497 155.443 133.112 155.443Z" fill="#C5DFFF"/>
<path d="M142.116 139.285C141.732 139.285 141.424 138.977 141.424 138.592V134.976C141.424 134.591 141.732 134.283 142.116 134.283C142.501 134.283 142.809 134.591 142.809 134.976V138.592C142.809 138.977 142.501 139.285 142.116 139.285Z" fill="#C5DFFF"/>
<path d="M142.116 187.682C141.732 187.682 141.424 187.374 141.424 186.989V178.91C141.424 178.526 141.732 178.218 142.116 178.218C142.501 178.218 142.809 178.526 142.809 178.91V186.989C142.809 187.451 142.501 187.682 142.116 187.682ZM142.116 171.601C141.732 171.601 141.424 171.293 141.424 170.908V162.829C141.424 162.444 141.732 162.137 142.116 162.137C142.501 162.137 142.809 162.444 142.809 162.829V170.908C142.809 171.293 142.501 171.601 142.116 171.601ZM142.116 155.443C141.732 155.443 141.424 155.135 141.424 154.75V146.671C141.424 146.286 141.732 145.979 142.116 145.979C142.501 145.979 142.809 146.286 142.809 146.671V154.75C142.809 155.135 142.501 155.443 142.116 155.443Z" fill="#C5DFFF"/>
<path d="M151.194 139.285C150.81 139.285 150.502 138.977 150.502 138.592V134.976C150.502 134.591 150.81 134.283 151.194 134.283C151.579 134.283 151.887 134.591 151.887 134.976V138.592C151.81 138.977 151.502 139.285 151.194 139.285Z" fill="#C5DFFF"/>
<path d="M151.194 187.682C150.81 187.682 150.502 187.374 150.502 186.989V178.91C150.502 178.526 150.81 178.218 151.194 178.218C151.579 178.218 151.887 178.526 151.887 178.91V186.989C151.81 187.451 151.502 187.682 151.194 187.682ZM151.194 171.601C150.81 171.601 150.502 171.293 150.502 170.908V162.829C150.502 162.444 150.81 162.137 151.194 162.137C151.579 162.137 151.887 162.444 151.887 162.829V170.908C151.81 171.293 151.502 171.601 151.194 171.601ZM151.194 155.443C150.81 155.443 150.502 155.135 150.502 154.75V146.671C150.502 146.286 150.81 145.979 151.194 145.979C151.579 145.979 151.887 146.286 151.887 146.671V154.75C151.81 155.135 151.502 155.443 151.194 155.443Z" fill="#C5DFFF"/>
<path d="M160.196 139.285C159.812 139.285 159.504 138.977 159.504 138.592V134.976C159.504 134.591 159.812 134.283 160.196 134.283C160.581 134.283 160.889 134.591 160.889 134.976V138.592C160.889 138.977 160.581 139.285 160.196 139.285Z" fill="#C5DFFF"/>
<path d="M160.196 187.682C159.812 187.682 159.504 187.374 159.504 186.989V178.91C159.504 178.526 159.812 178.218 160.196 178.218C160.581 178.218 160.889 178.526 160.889 178.91V186.989C160.889 187.451 160.581 187.682 160.196 187.682ZM160.196 171.601C159.812 171.601 159.504 171.293 159.504 170.908V162.829C159.504 162.444 159.812 162.137 160.196 162.137C160.581 162.137 160.889 162.444 160.889 162.829V170.908C160.889 171.293 160.581 171.601 160.196 171.601ZM160.196 155.443C159.812 155.443 159.504 155.135 159.504 154.75V146.671C159.504 146.286 159.812 145.979 160.196 145.979C160.581 145.979 160.889 146.286 160.889 146.671V154.75C160.889 155.135 160.581 155.443 160.196 155.443Z" fill="#C5DFFF"/>
<path d="M160.196 199.454C159.812 199.454 159.504 199.147 159.504 198.762V195.146C159.504 194.761 159.812 194.453 160.196 194.453C160.581 194.453 160.889 194.761 160.889 195.146V198.762C160.889 199.147 160.581 199.454 160.196 199.454Z" fill="#C5DFFF"/>
<path d="M169.198 139.285C168.814 139.285 168.506 138.977 168.506 138.592V134.976C168.506 134.591 168.814 134.283 169.198 134.283C169.583 134.283 169.891 134.591 169.891 134.976V138.592C169.891 138.977 169.583 139.285 169.198 139.285Z" fill="#C5DFFF"/>
<path d="M169.198 187.682C168.814 187.682 168.506 187.374 168.506 186.989V178.91C168.506 178.526 168.814 178.218 169.198 178.218C169.583 178.218 169.891 178.526 169.891 178.91V186.989C169.891 187.451 169.583 187.682 169.198 187.682ZM169.198 171.601C168.814 171.601 168.506 171.293 168.506 170.908V162.829C168.506 162.444 168.814 162.137 169.198 162.137C169.583 162.137 169.891 162.444 169.891 162.829V170.908C169.891 171.293 169.583 171.601 169.198 171.601ZM169.198 155.443C168.814 155.443 168.506 155.135 168.506 154.75V146.671C168.506 146.286 168.814 145.979 169.198 145.979C169.583 145.979 169.891 146.286 169.891 146.671V154.75C169.891 155.135 169.583 155.443 169.198 155.443Z" fill="#C5DFFF"/>
<path d="M169.198 199.454C168.814 199.454 168.506 199.147 168.506 198.762V195.146C168.506 194.761 168.814 194.453 169.198 194.453C169.583 194.453 169.891 194.761 169.891 195.146V198.762C169.891 199.147 169.583 199.454 169.198 199.454Z" fill="#C5DFFF"/>
<path d="M191.743 118.046C191.359 118.046 191.051 117.738 191.051 117.354V113.737C191.051 113.353 191.359 113.045 191.743 113.045C192.128 113.045 192.436 113.353 192.436 113.737V117.354C192.436 117.738 192.128 118.046 191.743 118.046Z" fill="#C5DFFF"/>
<path d="M191.743 150.284C191.359 150.284 191.051 149.976 191.051 149.591V141.512C191.051 141.127 191.359 140.82 191.743 140.82C192.128 140.82 192.436 141.127 192.436 141.512V149.591C192.436 150.053 192.128 150.284 191.743 150.284ZM191.743 134.202C191.359 134.202 191.051 133.895 191.051 133.51V125.431C191.051 125.046 191.359 124.738 191.743 124.738C192.128 124.738 192.436 125.046 192.436 125.431V133.51C192.436 133.895 192.128 134.202 191.743 134.202Z" fill="#C5DFFF"/>
<path d="M200.745 118.046C200.361 118.046 200.053 117.738 200.053 117.354V113.737C200.053 113.353 200.361 113.045 200.745 113.045C201.13 113.045 201.438 113.353 201.438 113.737V117.354C201.438 117.738 201.13 118.046 200.745 118.046Z" fill="#C5DFFF"/>
<path d="M200.745 150.284C200.361 150.284 200.053 149.976 200.053 149.591V141.512C200.053 141.127 200.361 140.82 200.745 140.82C201.13 140.82 201.438 141.127 201.438 141.512V149.591C201.438 150.053 201.13 150.284 200.745 150.284ZM200.745 134.202C200.361 134.202 200.053 133.895 200.053 133.51V125.431C200.053 125.046 200.361 124.738 200.745 124.738C201.13 124.738 201.438 125.046 201.438 125.431V133.51C201.438 133.895 201.13 134.202 200.745 134.202Z" fill="#C5DFFF"/>
<path d="M209.825 118.046C209.441 118.046 209.133 117.738 209.133 117.354V113.737C209.133 113.353 209.441 113.045 209.825 113.045C210.21 113.045 210.518 113.353 210.518 113.737V117.354C210.441 117.738 210.133 118.046 209.825 118.046Z" fill="#C5DFFF"/>
<path d="M209.825 166.442C209.441 166.442 209.133 166.134 209.133 165.749V157.67C209.133 157.285 209.441 156.978 209.825 156.978C210.21 156.978 210.518 157.285 210.518 157.67V165.749C210.441 166.211 210.133 166.442 209.825 166.442ZM209.825 150.284C209.441 150.284 209.133 149.976 209.133 149.591V141.512C209.133 141.127 209.441 140.82 209.825 140.82C210.21 140.82 210.518 141.127 210.518 141.512V149.591C210.441 150.053 210.133 150.284 209.825 150.284ZM209.825 134.202C209.441 134.202 209.133 133.895 209.133 133.51V125.431C209.133 125.046 209.441 124.738 209.825 124.738C210.21 124.738 210.518 125.046 210.518 125.431V133.51C210.441 133.895 210.133 134.202 209.825 134.202Z" fill="#C5DFFF"/>
<path d="M236.831 118.046C236.446 118.046 236.139 117.738 236.139 117.354V113.737C236.139 113.353 236.446 113.045 236.831 113.045C237.216 113.045 237.524 113.353 237.524 113.737V117.354C237.524 117.738 237.216 118.046 236.831 118.046Z" fill="#C5DFFF"/>
<path d="M236.831 166.442C236.446 166.442 236.139 166.134 236.139 165.749V157.67C236.139 157.285 236.446 156.978 236.831 156.978C237.216 156.978 237.524 157.285 237.524 157.67V165.749C237.524 166.211 237.216 166.442 236.831 166.442ZM236.831 150.284C236.446 150.284 236.139 149.976 236.139 149.591V141.512C236.139 141.127 236.446 140.82 236.831 140.82C237.216 140.82 237.524 141.127 237.524 141.512V149.591C237.524 150.053 237.216 150.284 236.831 150.284ZM236.831 134.202C236.446 134.202 236.139 133.895 236.139 133.51V125.431C236.139 125.046 236.446 124.738 236.831 124.738C237.216 124.738 237.524 125.046 237.524 125.431V133.51C237.524 133.895 237.216 134.202 236.831 134.202Z" fill="#C5DFFF"/>
<path d="M245.681 118.046C245.296 118.046 244.988 117.738 244.988 117.354V113.737C244.988 113.353 245.296 113.045 245.681 113.045C246.065 113.045 246.373 113.353 246.373 113.737V117.354C246.296 117.738 245.989 118.046 245.681 118.046Z" fill="#C5DFFF"/>
<path d="M245.681 166.442C245.296 166.442 244.988 166.134 244.988 165.749V157.67C244.988 157.285 245.296 156.978 245.681 156.978C246.065 156.978 246.373 157.285 246.373 157.67V165.749C246.296 166.211 245.989 166.442 245.681 166.442ZM245.681 150.284C245.296 150.284 244.988 149.976 244.988 149.591V141.512C244.988 141.127 245.296 140.82 245.681 140.82C246.065 140.82 246.373 141.127 246.373 141.512V149.591C246.296 150.053 245.989 150.284 245.681 150.284ZM245.681 134.202C245.296 134.202 244.988 133.895 244.988 133.51V125.431C244.988 125.046 245.296 124.738 245.681 124.738C246.065 124.738 246.373 125.046 246.373 125.431V133.51C246.296 133.895 245.989 134.202 245.681 134.202Z" fill="#C5DFFF"/>
<path d="M254.683 118.046C254.298 118.046 253.99 117.738 253.99 117.354V113.737C253.99 113.353 254.298 113.045 254.683 113.045C255.067 113.045 255.375 113.353 255.375 113.737V117.354C255.375 117.738 255.067 118.046 254.683 118.046Z" fill="#C5DFFF"/>
<path d="M254.683 166.442C254.298 166.442 253.99 166.134 253.99 165.749V157.67C253.99 157.285 254.298 156.978 254.683 156.978C255.067 156.978 255.375 157.285 255.375 157.67V165.749C255.375 166.211 255.067 166.442 254.683 166.442ZM254.683 150.284C254.298 150.284 253.99 149.976 253.99 149.591V141.512C253.99 141.127 254.298 140.82 254.683 140.82C255.067 140.82 255.375 141.127 255.375 141.512V149.591C255.375 150.053 255.067 150.284 254.683 150.284ZM254.683 134.202C254.298 134.202 253.99 133.895 253.99 133.51V125.431C253.99 125.046 254.298 124.738 254.683 124.738C255.067 124.738 255.375 125.046 255.375 125.431V133.51C255.375 133.895 255.067 134.202 254.683 134.202Z" fill="#C5DFFF"/>
<path d="M263.685 118.046C263.3 118.046 262.992 117.738 262.992 117.354V113.737C262.992 113.353 263.3 113.045 263.685 113.045C264.069 113.045 264.377 113.353 264.377 113.737V117.354C264.377 117.738 264.069 118.046 263.685 118.046Z" fill="#C5DFFF"/>
<path d="M263.685 166.442C263.3 166.442 262.992 166.134 262.992 165.749V157.67C262.992 157.285 263.3 156.978 263.685 156.978C264.069 156.978 264.377 157.285 264.377 157.67V165.749C264.377 166.211 264.069 166.442 263.685 166.442ZM263.685 150.284C263.3 150.284 262.992 149.976 262.992 149.591V141.512C262.992 141.127 263.3 140.82 263.685 140.82C264.069 140.82 264.377 141.127 264.377 141.512V149.591C264.377 150.053 264.069 150.284 263.685 150.284ZM263.685 134.202C263.3 134.202 262.992 133.895 262.992 133.51V125.431C262.992 125.046 263.3 124.738 263.685 124.738C264.069 124.738 264.377 125.046 264.377 125.431V133.51C264.377 133.895 264.069 134.202 263.685 134.202Z" fill="#C5DFFF"/>
<path d="M227.829 180.909C227.444 180.909 227.137 180.602 227.137 180.217V172.138C227.137 171.753 227.444 171.445 227.829 171.445C228.214 171.445 228.522 171.753 228.522 172.138V180.217C228.522 180.602 228.214 180.909 227.829 180.909Z" fill="#C5DFFF"/>
<path d="M236.831 180.909C236.446 180.909 236.139 180.602 236.139 180.217V172.138C236.139 171.753 236.446 171.445 236.831 171.445C237.216 171.445 237.524 171.753 237.524 172.138V180.217C237.524 180.602 237.216 180.909 236.831 180.909Z" fill="#C5DFFF"/>
<path d="M245.679 180.909C245.294 180.909 244.986 180.602 244.986 180.217V172.138C244.986 171.753 245.294 171.445 245.679 171.445C246.064 171.445 246.371 171.753 246.371 172.138V180.217C246.294 180.602 245.987 180.909 245.679 180.909Z" fill="#C5DFFF"/>
<path d="M254.683 197.068C254.298 197.068 253.99 196.76 253.99 196.375V188.296C253.99 187.911 254.298 187.603 254.683 187.603C255.067 187.603 255.375 187.911 255.375 188.296V196.375C255.375 196.76 255.067 197.068 254.683 197.068ZM254.683 180.909C254.298 180.909 253.99 180.602 253.99 180.217V172.138C253.99 171.753 254.298 171.445 254.683 171.445C255.067 171.445 255.375 171.753 255.375 172.138V180.217C255.375 180.602 255.067 180.909 254.683 180.909Z" fill="#C5DFFF"/>
<path d="M263.685 213.226C263.3 213.226 262.992 212.918 262.992 212.533V204.454C262.992 204.069 263.3 203.762 263.685 203.762C264.069 203.762 264.377 204.069 264.377 204.454V212.533C264.377 212.918 264.069 213.226 263.685 213.226ZM263.685 197.068C263.3 197.068 262.992 196.76 262.992 196.375V188.296C262.992 187.911 263.3 187.603 263.685 187.603C264.069 187.603 264.377 187.911 264.377 188.296V196.375C264.377 196.76 264.069 197.068 263.685 197.068ZM263.685 180.909C263.3 180.909 262.992 180.602 262.992 180.217V172.138C262.992 171.753 263.3 171.445 263.685 171.445C264.069 171.445 264.377 171.753 264.377 172.138V180.217C264.377 180.602 264.069 180.909 263.685 180.909Z" fill="#C5DFFF"/>
<path d="M272.765 213.226C272.38 213.226 272.072 212.918 272.072 212.533V204.454C272.072 204.069 272.38 203.762 272.765 203.762C273.149 203.762 273.457 204.069 273.457 204.454V212.533C273.38 212.918 273.073 213.226 272.765 213.226ZM272.765 197.068C272.38 197.068 272.072 196.76 272.072 196.375V188.296C272.072 187.911 272.38 187.603 272.765 187.603C273.149 187.603 273.457 187.911 273.457 188.296V196.375C273.38 196.76 273.073 197.068 272.765 197.068ZM272.765 180.909C272.38 180.909 272.072 180.602 272.072 180.217V172.138C272.072 171.753 272.38 171.445 272.765 171.445C273.149 171.445 273.457 171.753 273.457 172.138V180.217C273.38 180.602 273.073 180.909 272.765 180.909Z" fill="#C5DFFF"/>
<path d="M281.767 213.226C281.382 213.226 281.074 212.918 281.074 212.533V204.454C281.074 204.069 281.382 203.762 281.767 203.762C282.151 203.762 282.459 204.069 282.459 204.454V212.533C282.382 212.918 282.151 213.226 281.767 213.226ZM281.767 197.068C281.382 197.068 281.074 196.76 281.074 196.375V188.296C281.074 187.911 281.382 187.603 281.767 187.603C282.151 187.603 282.459 187.911 282.459 188.296V196.375C282.382 196.76 282.151 197.068 281.767 197.068ZM281.767 180.909C281.382 180.909 281.074 180.602 281.074 180.217V172.138C281.074 171.753 281.382 171.445 281.767 171.445C282.151 171.445 282.459 171.753 282.459 172.138V180.217C282.382 180.602 282.151 180.909 281.767 180.909Z" fill="#C5DFFF"/>
<path d="M281.767 224.921C281.382 224.921 281.074 224.613 281.074 224.229V220.612C281.074 220.228 281.382 219.92 281.767 219.92C282.151 219.92 282.459 220.228 282.459 220.612V224.229C282.382 224.613 282.151 224.921 281.767 224.921Z" fill="#C5DFFF"/>
<path d="M290.769 213.226C290.384 213.226 290.076 212.918 290.076 212.533V204.454C290.076 204.069 290.384 203.762 290.769 203.762C291.153 203.762 291.461 204.069 291.461 204.454V212.533C291.461 212.918 291.153 213.226 290.769 213.226ZM290.769 197.068C290.384 197.068 290.076 196.76 290.076 196.375V188.296C290.076 187.911 290.384 187.603 290.769 187.603C291.153 187.603 291.461 187.911 291.461 188.296V196.375C291.461 196.76 291.153 197.068 290.769 197.068ZM290.769 180.909C290.384 180.909 290.076 180.602 290.076 180.217V172.138C290.076 171.753 290.384 171.445 290.769 171.445C291.153 171.445 291.461 171.753 291.461 172.138V180.217C291.461 180.602 291.153 180.909 290.769 180.909Z" fill="#C5DFFF"/>
<path d="M290.769 224.921C290.384 224.921 290.076 224.613 290.076 224.229V220.612C290.076 220.228 290.384 219.92 290.769 219.92C291.153 219.92 291.461 220.228 291.461 220.612V224.229C291.461 224.613 291.153 224.921 290.769 224.921Z" fill="#C5DFFF"/>
<path d="M272.765 118.046C272.38 118.046 272.072 117.738 272.072 117.354V113.737C272.072 113.353 272.38 113.045 272.765 113.045C273.149 113.045 273.457 113.353 273.457 113.737V117.354C273.38 117.738 273.073 118.046 272.765 118.046Z" fill="#C5DFFF"/>
<path d="M272.765 166.442C272.38 166.442 272.072 166.134 272.072 165.749V157.67C272.072 157.285 272.38 156.978 272.765 156.978C273.149 156.978 273.457 157.285 273.457 157.67V165.749C273.38 166.211 273.073 166.442 272.765 166.442ZM272.765 150.284C272.38 150.284 272.072 149.976 272.072 149.591V141.512C272.072 141.127 272.38 140.82 272.765 140.82C273.149 140.82 273.457 141.127 273.457 141.512V149.591C273.38 150.053 273.073 150.284 272.765 150.284ZM272.765 134.202C272.38 134.202 272.072 133.895 272.072 133.51V125.431C272.072 125.046 272.38 124.738 272.765 124.738C273.149 124.738 273.457 125.046 273.457 125.431V133.51C273.38 133.895 273.073 134.202 272.765 134.202Z" fill="#C5DFFF"/>
<path d="M281.767 118.046C281.382 118.046 281.074 117.738 281.074 117.354V113.737C281.074 113.353 281.382 113.045 281.767 113.045C282.151 113.045 282.459 113.353 282.459 113.737V117.354C282.382 117.738 282.151 118.046 281.767 118.046Z" fill="#C5DFFF"/>
<path d="M281.767 166.442C281.382 166.442 281.074 166.134 281.074 165.749V157.67C281.074 157.285 281.382 156.978 281.767 156.978C282.151 156.978 282.459 157.285 282.459 157.67V165.749C282.382 166.211 282.151 166.442 281.767 166.442ZM281.767 150.284C281.382 150.284 281.074 149.976 281.074 149.591V141.512C281.074 141.127 281.382 140.82 281.767 140.82C282.151 140.82 282.459 141.127 282.459 141.512V149.591C282.382 150.053 282.151 150.284 281.767 150.284ZM281.767 134.202C281.382 134.202 281.074 133.895 281.074 133.51V125.431C281.074 125.046 281.382 124.738 281.767 124.738C282.151 124.738 282.459 125.046 282.459 125.431V133.51C282.382 133.895 282.151 134.202 281.767 134.202Z" fill="#C5DFFF"/>
<path d="M290.771 118.046C290.386 118.046 290.078 117.738 290.078 117.354V113.737C290.078 113.353 290.386 113.045 290.771 113.045C291.155 113.045 291.463 113.353 291.463 113.737V117.354C291.463 117.738 291.155 118.046 290.771 118.046Z" fill="#C5DFFF"/>
<path d="M290.771 166.442C290.386 166.442 290.078 166.134 290.078 165.749V157.67C290.078 157.285 290.386 156.978 290.771 156.978C291.155 156.978 291.463 157.285 291.463 157.67V165.749C291.463 166.211 291.155 166.442 290.771 166.442ZM290.771 150.284C290.386 150.284 290.078 149.976 290.078 149.591V141.512C290.078 141.127 290.386 140.82 290.771 140.82C291.155 140.82 291.463 141.127 291.463 141.512V149.591C291.463 150.053 291.155 150.284 290.771 150.284ZM290.771 134.202C290.386 134.202 290.078 133.895 290.078 133.51V125.431C290.078 125.046 290.386 124.738 290.771 124.738C291.155 124.738 291.463 125.046 291.463 125.431V133.51C291.463 133.895 291.155 134.202 290.771 134.202Z" fill="#C5DFFF"/>
<path d="M218.825 118.046C218.441 118.046 218.133 117.738 218.133 117.354V113.737C218.133 113.353 218.441 113.045 218.825 113.045C219.21 113.045 219.518 113.353 219.518 113.737V117.354C219.441 117.738 219.21 118.046 218.825 118.046Z" fill="#C5DFFF"/>
<path d="M218.825 166.442C218.441 166.442 218.133 166.134 218.133 165.749V157.67C218.133 157.285 218.441 156.978 218.825 156.978C219.21 156.978 219.518 157.285 219.518 157.67V165.749C219.441 166.211 219.21 166.442 218.825 166.442ZM218.825 150.284C218.441 150.284 218.133 149.976 218.133 149.591V141.512C218.133 141.127 218.441 140.82 218.825 140.82C219.21 140.82 219.518 141.127 219.518 141.512V149.591C219.441 150.053 219.21 150.284 218.825 150.284ZM218.825 134.202C218.441 134.202 218.133 133.895 218.133 133.51V125.431C218.133 125.046 218.441 124.738 218.825 124.738C219.21 124.738 219.518 125.046 219.518 125.431V133.51C219.441 133.895 219.21 134.202 218.825 134.202Z" fill="#C5DFFF"/>
<path d="M227.829 118.046C227.444 118.046 227.137 117.738 227.137 117.354V113.737C227.137 113.353 227.444 113.045 227.829 113.045C228.214 113.045 228.522 113.353 228.522 113.737V117.354C228.522 117.738 228.214 118.046 227.829 118.046Z" fill="#C5DFFF"/>
<path d="M227.829 166.442C227.444 166.442 227.137 166.134 227.137 165.749V157.67C227.137 157.285 227.444 156.978 227.829 156.978C228.214 156.978 228.522 157.285 228.522 157.67V165.749C228.522 166.211 228.214 166.442 227.829 166.442ZM227.829 150.284C227.444 150.284 227.137 149.976 227.137 149.591V141.512C227.137 141.127 227.444 140.82 227.829 140.82C228.214 140.82 228.522 141.127 228.522 141.512V149.591C228.522 150.053 228.214 150.284 227.829 150.284ZM227.829 134.202C227.444 134.202 227.137 133.895 227.137 133.51V125.431C227.137 125.046 227.444 124.738 227.829 124.738C228.214 124.738 228.522 125.046 228.522 125.431V133.51C228.522 133.895 228.214 134.202 227.829 134.202Z" fill="#C5DFFF"/>
<path d="M310.544 180.679C310.159 180.679 309.852 180.371 309.852 179.987V176.37C309.852 175.986 310.159 175.678 310.544 175.678C310.929 175.678 311.237 175.986 311.237 176.37V179.987C311.16 180.371 310.852 180.679 310.544 180.679Z" fill="#C5DFFF"/>
<path d="M310.544 229.077C310.159 229.077 309.852 228.769 309.852 228.385V220.306C309.852 219.921 310.159 219.613 310.544 219.613C310.929 219.613 311.237 219.921 311.237 220.306V228.385C311.16 228.769 310.852 229.077 310.544 229.077ZM310.544 212.919C310.159 212.919 309.852 212.611 309.852 212.227V204.148C309.852 203.763 310.159 203.455 310.544 203.455C310.929 203.455 311.237 203.763 311.237 204.148V212.227C311.16 212.611 310.852 212.919 310.544 212.919ZM310.544 196.761C310.159 196.761 309.852 196.453 309.852 196.068V187.989C309.852 187.605 310.159 187.297 310.544 187.297C310.929 187.297 311.237 187.605 311.237 187.989V196.068C311.16 196.53 310.852 196.761 310.544 196.761Z" fill="#C5DFFF"/>
<path d="M310.544 240.773C310.159 240.773 309.852 240.465 309.852 240.08V236.464C309.852 236.079 310.159 235.771 310.544 235.771C310.929 235.771 311.237 236.079 311.237 236.464V240.08C311.16 240.542 310.852 240.773 310.544 240.773Z" fill="#C5DFFF"/>
<path d="M319.546 180.679C319.161 180.679 318.854 180.371 318.854 179.987V176.37C318.854 175.986 319.161 175.678 319.546 175.678C319.931 175.678 320.239 175.986 320.239 176.37V179.987C320.162 180.371 319.931 180.679 319.546 180.679Z" fill="#C5DFFF"/>
<path d="M319.546 229.077C319.161 229.077 318.854 228.769 318.854 228.385V220.306C318.854 219.921 319.161 219.613 319.546 219.613C319.931 219.613 320.239 219.921 320.239 220.306V228.385C320.162 228.769 319.931 229.077 319.546 229.077ZM319.546 212.919C319.161 212.919 318.854 212.611 318.854 212.227V204.148C318.854 203.763 319.161 203.455 319.546 203.455C319.931 203.455 320.239 203.763 320.239 204.148V212.227C320.162 212.611 319.931 212.919 319.546 212.919ZM319.546 196.761C319.161 196.761 318.854 196.453 318.854 196.068V187.989C318.854 187.605 319.161 187.297 319.546 187.297C319.931 187.297 320.239 187.605 320.239 187.989V196.068C320.162 196.53 319.931 196.761 319.546 196.761Z" fill="#C5DFFF"/>
<path d="M319.546 240.773C319.161 240.773 318.854 240.465 318.854 240.08V236.464C318.854 236.079 319.161 235.771 319.546 235.771C319.931 235.771 320.239 236.079 320.239 236.464V240.08C320.162 240.542 319.931 240.773 319.546 240.773Z" fill="#C5DFFF"/>
<path d="M328.548 180.679C328.163 180.679 327.855 180.371 327.855 179.987V176.37C327.855 175.986 328.163 175.678 328.548 175.678C328.933 175.678 329.24 175.986 329.24 176.37V179.987C329.24 180.371 328.933 180.679 328.548 180.679Z" fill="#C5DFFF"/>
<path d="M328.548 229.077C328.163 229.077 327.855 228.769 327.855 228.385V220.306C327.855 219.921 328.163 219.613 328.548 219.613C328.933 219.613 329.24 219.921 329.24 220.306V228.385C329.24 228.769 328.933 229.077 328.548 229.077ZM328.548 212.919C328.163 212.919 327.855 212.611 327.855 212.227V204.148C327.855 203.763 328.163 203.455 328.548 203.455C328.933 203.455 329.24 203.763 329.24 204.148V212.227C329.24 212.611 328.933 212.919 328.548 212.919ZM328.548 196.761C328.163 196.761 327.855 196.453 327.855 196.068V187.989C327.855 187.605 328.163 187.297 328.548 187.297C328.933 187.297 329.24 187.605 329.24 187.989V196.068C329.24 196.53 328.933 196.761 328.548 196.761Z" fill="#C5DFFF"/>
<path d="M337.628 180.679C337.243 180.679 336.936 180.371 336.936 179.987V176.37C336.936 175.986 337.243 175.678 337.628 175.678C338.013 175.678 338.321 175.986 338.321 176.37V179.987C338.244 180.371 337.936 180.679 337.628 180.679Z" fill="#C5DFFF"/>
<path d="M337.628 229.077C337.243 229.077 336.936 228.769 336.936 228.385V220.306C336.936 219.921 337.243 219.613 337.628 219.613C338.013 219.613 338.321 219.921 338.321 220.306V228.385C338.244 228.769 337.936 229.077 337.628 229.077ZM337.628 212.919C337.243 212.919 336.936 212.611 336.936 212.227V204.148C336.936 203.763 337.243 203.455 337.628 203.455C338.013 203.455 338.321 203.763 338.321 204.148V212.227C338.244 212.611 337.936 212.919 337.628 212.919ZM337.628 196.761C337.243 196.761 336.936 196.453 336.936 196.068V187.989C336.936 187.605 337.243 187.297 337.628 187.297C338.013 187.297 338.321 187.605 338.321 187.989V196.068C338.244 196.53 337.936 196.761 337.628 196.761Z" fill="#C5DFFF"/>
<path d="M346.63 180.679C346.245 180.679 345.938 180.371 345.938 179.987V176.37C345.938 175.986 346.245 175.678 346.63 175.678C347.015 175.678 347.322 175.986 347.322 176.37V179.987C347.246 180.371 347.015 180.679 346.63 180.679Z" fill="#C5DFFF"/>
<path d="M346.63 212.919C346.245 212.919 345.938 212.611 345.938 212.227V204.148C345.938 203.763 346.245 203.455 346.63 203.455C347.015 203.455 347.322 203.763 347.322 204.148V212.227C347.246 212.611 347.015 212.919 346.63 212.919ZM346.63 196.761C346.245 196.761 345.938 196.453 345.938 196.068V187.989C345.938 187.605 346.245 187.297 346.63 187.297C347.015 187.297 347.322 187.605 347.322 187.989V196.068C347.246 196.53 347.015 196.761 346.63 196.761Z" fill="#C5DFFF"/>
<path d="M355.632 180.679C355.247 180.679 354.939 180.371 354.939 179.987V176.37C354.939 175.986 355.247 175.678 355.632 175.678C356.017 175.678 356.324 175.986 356.324 176.37V179.987C356.324 180.371 356.017 180.679 355.632 180.679Z" fill="#C5DFFF"/>
<path d="M355.632 196.761C355.247 196.761 354.939 196.453 354.939 196.068V187.989C354.939 187.605 355.247 187.297 355.632 187.297C356.017 187.297 356.324 187.605 356.324 187.989V196.068C356.324 196.53 356.017 196.761 355.632 196.761Z" fill="#C5DFFF"/>
<path d="M300.696 105.43C300.696 108.354 271.765 111.508 240.449 111.508C209.133 111.508 185.434 113.663 182.126 109.123C181.664 108.507 181.664 107.892 182.126 107.353C184.434 104.506 197.899 103.583 200.207 103.429C200.438 103.429 200.515 103.429 200.515 103.429C200.515 103.429 191.282 93.2726 198.361 85.0396C205.439 76.8066 213.057 84.0393 213.057 84.0393C213.057 84.0393 210.056 68.2659 218.597 64.3418C218.828 64.2648 219.058 64.1109 219.289 64.034C228.446 60.8024 231.985 72.5747 232.216 73.1903C232.216 73.1903 232.447 57.3399 246.527 55.9549C248.913 55.7241 251.067 56.1858 252.914 57.186C261.762 61.8796 264.147 77.653 264.147 77.653C264.763 77.0375 271.688 70.4973 279.151 74.7292C286.846 79.115 282.614 90.4257 282.46 90.7334C282.691 90.6565 288.154 89.4254 289.924 92.5031C291.693 95.6578 289.924 100.505 289.924 100.505C289.924 100.505 294.002 101.198 297.079 102.352C298.849 103.044 300.388 103.891 300.619 104.891C300.696 105.199 300.696 105.276 300.696 105.43Z" fill="#0B4482"/>
<path d="M203.439 100.428C205.132 103.583 206.286 104.737 206.286 104.737C206.286 104.737 203.67 104.814 200.131 103.429C200.361 103.429 200.438 103.429 200.438 103.429C200.438 103.429 191.205 93.2726 198.284 85.0396C205.363 76.8067 212.98 84.0394 212.98 84.0394C212.98 84.0394 209.979 68.2659 218.52 64.3418C217.597 66.1884 216.596 69.2662 216.673 73.1134C216.827 79.8844 219.059 89.5793 219.059 89.5793C219.059 89.5793 209.825 84.2702 203.901 86.3477C198.13 88.4251 201.746 97.3506 203.439 100.428Z" fill="#0E2A5A"/>
<path d="M300.696 105.429C300.696 108.353 271.765 111.507 240.449 111.507C209.133 111.507 185.434 113.662 182.126 109.122C181.664 108.507 181.664 107.891 182.126 107.352C185.973 108.584 193.821 110.045 209.133 109.507C234.755 108.507 286.23 108.353 298.772 105.583C299.465 105.429 300.08 105.275 300.696 105.121C300.696 105.198 300.696 105.275 300.696 105.429Z" fill="#0E2A5A"/>
<path d="M252.914 57.3403C249.682 57.6481 245.219 58.7253 241.141 61.88C233.832 67.5738 233.139 78.3459 233.139 78.3459L232.293 73.3446C232.293 73.3446 232.524 57.4942 246.604 56.1092C248.913 55.8784 251.067 56.3401 252.914 57.3403Z" fill="#506893"/>
<path d="M287.308 101.89C287.308 101.89 288.386 98.351 286.154 95.4272C283.923 92.5033 277.921 94.8116 277.921 94.8116C277.921 94.8116 282.692 82.8854 276.921 77.8071C271.304 72.8827 264.456 77.5762 264.148 77.8071C264.764 77.1915 271.689 70.6513 279.152 74.8832C286.847 79.269 282.615 90.5797 282.461 90.8875C282.692 90.8105 288.155 89.5794 289.925 92.6572C291.694 95.8119 289.925 100.659 289.925 100.659C289.925 100.659 294.003 101.352 297.08 102.506C293.926 102.198 287.308 101.89 287.308 101.89Z" fill="#09549D"/>
<path d="M175.51 130.435C173.355 132.743 164.507 134.051 147.502 135.821C133.806 137.283 116.802 137.821 115.571 134.743C114.34 131.666 125.343 130.435 125.343 130.435C125.343 130.435 121.726 126.126 126.804 120.894C130.498 117.046 136.499 120.74 136.73 120.894C136.653 120.663 131.344 109.737 136.422 104.043C137.269 103.12 138.346 102.273 139.808 101.735C139.885 101.735 139.962 101.658 140.039 101.658C150.349 97.9644 156.043 119.432 156.043 119.432C156.043 119.432 165.815 114.353 169.047 118.893C172.124 123.125 170.355 127.511 170.124 128.049V128.126C170.124 128.126 174.356 128.126 175.587 129.127C175.971 129.434 176.048 129.896 175.51 130.435Z" fill="#0B4482"/>
<path d="M175.51 130.435C173.355 132.743 164.507 134.051 147.502 135.821C133.806 137.283 116.802 137.821 115.571 134.743C114.34 131.666 125.343 130.435 125.343 130.435C125.343 130.435 121.726 126.126 126.804 120.894C130.498 117.046 136.499 120.74 136.73 120.894C136.653 120.663 131.344 109.737 136.422 104.043C136.038 105.813 135.961 108.352 136.807 111.66C138.962 120.355 142.578 125.356 142.578 125.356C142.578 125.356 133.345 119.97 128.882 122.74C124.419 125.51 129.344 131.281 129.344 131.281C129.344 131.281 120.187 131.973 120.11 134.205C119.957 136.359 145.887 133.358 158.351 132.127C169.047 131.127 173.509 130.204 175.664 129.05C175.971 129.434 176.048 129.896 175.51 130.435Z" fill="#0E2A5A"/>
<path d="M170.124 128.049L169.201 128.511C169.201 128.511 169.97 121.509 166.277 119.663C162.507 117.816 154.351 123.433 154.351 123.433C154.351 123.433 153.658 116.046 148.965 108.967C145.964 104.428 142.27 102.504 140.039 101.658C150.35 97.9644 156.043 119.432 156.043 119.432C156.043 119.432 165.815 114.353 169.047 118.893C172.125 123.125 170.355 127.588 170.124 128.049Z" fill="#09549D"/>
<path d="M156.118 143.976L144.346 158.749C143.961 159.288 143.115 158.826 143.346 158.21L143.423 158.134L146.962 149.131C146.962 149.054 147.039 148.977 146.962 148.9C146.962 148.593 146.731 148.439 146.423 148.439L141.807 148.977C140.73 149.131 139.96 148.054 140.422 147.054L140.499 146.823L144.346 138.59L144.423 138.436C144.654 137.897 144.269 137.359 143.73 137.359L139.114 137.436C137.575 137.436 136.652 135.82 137.421 134.512L137.575 134.204L148.347 116.199C148.578 115.891 148.886 115.738 149.193 115.815C149.578 115.891 149.886 116.276 149.809 116.738L147.808 128.126C147.732 128.741 148.27 129.28 148.809 129.126L153.887 128.049C154.272 127.972 154.656 128.049 154.964 128.202C155.503 128.587 155.811 129.357 155.503 130.049L150.425 140.436C150.194 140.898 150.502 141.437 151.04 141.514C151.04 141.514 151.04 141.514 151.117 141.514L155.118 141.591C155.349 141.591 155.58 141.668 155.734 141.745C156.426 142.206 156.734 143.206 156.118 143.976Z" fill="#FEC272"/>
<path d="M144.347 138.667V138.513C144.578 137.975 144.193 137.436 143.654 137.436L139.038 137.513C137.499 137.513 136.575 135.897 137.345 134.589L137.499 134.281C137.73 134.589 138.114 134.82 138.884 134.897C140.269 134.974 144.039 134.897 145.193 134.897C146.27 135.051 144.347 138.667 144.347 138.667Z" fill="#FF8D76"/>
<path d="M146.962 148.824C146.962 148.516 146.731 148.362 146.423 148.362L141.807 148.901C140.73 149.055 139.96 147.978 140.422 146.977L140.499 146.746C140.884 146.823 141.576 146.977 142.653 146.823C144.577 146.593 147.347 146.054 147.578 146.285C147.731 146.67 147.116 148.439 146.962 148.824Z" fill="#FF8D76"/>
<path d="M147.733 128.202C147.656 128.817 148.194 129.356 148.733 129.202C147.271 129.74 145.809 129.894 146.04 128.432C146.271 127.124 148.656 117.66 149.041 115.891C149.425 115.968 149.733 116.352 149.656 116.814L147.733 128.202Z" fill="#FF8D76"/>
<path d="M150.425 140.591C150.195 141.052 150.502 141.591 151.041 141.668C150.964 141.668 150.887 141.668 150.81 141.668C149.502 141.668 148.271 141.283 149.194 139.513C149.964 137.975 153.965 130.434 155.042 128.434C155.581 128.818 155.888 129.588 155.581 130.28L150.425 140.591Z" fill="#FF8D76"/>
<path d="M156.12 143.975L144.348 158.748C143.963 159.287 143.117 158.825 143.348 158.209L143.425 158.132C143.886 157.671 144.733 156.901 145.887 155.208C147.272 153.208 154.274 143.821 155.736 141.82C156.428 142.205 156.736 143.205 156.12 143.975Z" fill="#FF8D76"/>
<path d="M253.301 152.98L224.985 188.528C223.985 189.759 222.062 188.682 222.6 187.143L222.677 186.912L231.295 165.214C231.372 165.06 231.372 164.907 231.372 164.676C231.372 164.06 230.756 163.445 230.064 163.598L218.984 164.907C216.445 165.214 214.598 162.675 215.675 160.367L215.906 159.905L225.062 140.131L225.216 139.823C225.755 138.592 224.832 137.13 223.524 137.207L212.444 137.438C208.75 137.515 206.442 133.514 208.366 130.359L208.75 129.743L234.603 86.501C235.065 85.6546 235.911 85.4238 236.681 85.5777C237.604 85.8085 238.374 86.6549 238.143 87.809L233.372 115.124C233.141 116.586 234.373 117.817 235.834 117.509L248.145 114.893C249.069 114.662 249.992 114.893 250.685 115.355C252.07 116.201 252.762 118.048 251.916 119.741L239.759 144.747C239.22 145.901 239.989 147.209 241.221 147.286H241.297L250.838 147.44C251.377 147.44 251.839 147.594 252.3 147.825C253.993 148.671 254.763 151.211 253.301 152.98Z" fill="#FEC272"/>
<path d="M225.061 140.132H224.984L225.138 139.824C225.677 138.593 224.753 137.131 223.445 137.208L212.365 137.439C208.672 137.515 206.364 133.514 208.287 130.36L208.672 129.744C209.211 130.36 210.211 131.129 211.904 131.206C215.212 131.36 224.292 131.129 226.985 131.283C229.678 131.437 225.061 140.132 225.061 140.132Z" fill="#FF8D76"/>
<path d="M231.295 164.676C231.295 164.06 230.679 163.444 229.987 163.598L218.907 164.906C216.368 165.214 214.521 162.675 215.598 160.367L215.829 159.905C216.83 160.136 218.522 160.367 220.985 160.059C225.524 159.443 232.295 158.135 232.834 158.828C233.219 159.443 231.68 163.752 231.295 164.676Z" fill="#FF8D76"/>
<path d="M233.217 115.126C232.986 116.588 234.217 117.819 235.679 117.511C232.063 118.819 228.6 119.127 229.216 115.741C229.755 112.663 235.448 89.8112 236.449 85.6562C237.372 85.8871 238.141 86.7335 237.911 87.8876L233.217 115.126Z" fill="#FF8D76"/>
<path d="M239.604 144.748C239.065 145.902 239.835 147.21 241.066 147.287C240.835 147.287 240.681 147.287 240.45 147.287C237.219 147.287 234.372 146.364 236.526 142.055C238.373 138.285 247.914 120.28 250.53 115.355C251.915 116.202 252.607 118.048 251.761 119.741L239.604 144.748Z" fill="#FF8D76"/>
<path d="M253.3 152.979L224.985 188.527C223.984 189.758 222.061 188.681 222.599 187.142L222.676 186.912C223.83 185.834 225.754 183.911 228.601 179.91C231.986 175.062 248.76 152.518 252.223 147.824C253.992 148.671 254.762 151.21 253.3 152.979Z" fill="#FF8D76"/>
<path d="M336.32 173.752L326.549 185.986C326.241 186.448 325.548 186.063 325.702 185.525V185.448L328.626 177.984C328.626 177.907 328.626 177.83 328.626 177.83C328.626 177.599 328.395 177.446 328.164 177.446L324.317 177.907C323.471 177.984 322.778 177.138 323.163 176.368L323.24 176.214L326.395 169.443L326.472 169.366C326.702 168.905 326.318 168.443 325.856 168.443L322.009 168.52C320.778 168.52 319.931 167.135 320.624 166.058L320.778 165.827L329.703 150.9C329.857 150.592 330.165 150.515 330.396 150.592C330.703 150.669 331.011 150.977 330.934 151.362L329.318 160.749C329.242 161.21 329.703 161.672 330.165 161.595L334.397 160.672C334.705 160.595 335.012 160.672 335.243 160.826C335.705 161.133 335.936 161.749 335.705 162.365L331.473 170.982C331.319 171.367 331.55 171.829 331.935 171.829L335.243 171.906C335.397 171.906 335.628 171.983 335.705 172.059C336.551 172.29 336.782 173.137 336.32 173.752Z" fill="#FEC272"/>
<path d="M326.626 169.29V169.213C326.857 168.752 326.472 168.29 326.01 168.29L322.163 168.367C320.932 168.367 320.086 166.982 320.778 165.905L320.932 165.674C321.086 165.905 321.471 166.135 322.086 166.212C323.24 166.289 326.318 166.212 327.318 166.212C328.319 166.212 326.626 169.29 326.626 169.29Z" fill="#FF8D76"/>
<path d="M328.779 177.753C328.779 177.522 328.548 177.368 328.317 177.368L324.47 177.83C323.624 177.906 322.931 177.06 323.316 176.291L323.393 176.137C323.701 176.214 324.316 176.291 325.163 176.214C326.702 175.983 329.087 175.598 329.241 175.829C329.395 175.983 328.856 177.445 328.779 177.753Z" fill="#FF8D76"/>
<path d="M329.396 160.672C329.319 161.134 329.78 161.596 330.242 161.519C329.011 161.98 327.78 162.057 328.011 160.903C328.164 159.826 330.165 151.978 330.55 150.516C330.857 150.593 331.165 150.9 331.088 151.285L329.396 160.672Z" fill="#FF8D76"/>
<path d="M331.626 170.905C331.472 171.29 331.703 171.752 332.088 171.752C332.011 171.752 331.934 171.752 331.857 171.752C330.78 171.752 329.78 171.444 330.549 169.905C331.165 168.597 334.473 162.365 335.397 160.672C335.858 160.98 336.089 161.595 335.858 162.211L331.626 170.905Z" fill="#FF8D76"/>
<path d="M336.322 173.752L326.55 185.986C326.242 186.448 325.55 186.063 325.704 185.524V185.448C326.088 185.063 326.781 184.447 327.704 183.062C328.858 181.37 334.629 173.598 335.86 171.982C336.553 172.29 336.784 173.137 336.322 173.752Z" fill="#FF8D76"/>
<path d="M358.789 166.291C358.712 168.061 344.708 169.985 329.089 170.369C313.469 170.754 303.544 169.215 304.621 167.445C305.698 165.753 311.392 165.137 311.392 165.137C311.392 165.137 306.006 160.982 308.853 155.134C311.777 149.287 318.009 153.442 318.009 153.442C318.009 153.442 316.008 144.516 321.856 141.669C322.779 141.208 323.857 140.9 325.165 140.823C325.857 140.746 326.473 140.823 327.165 140.9C335.552 142.131 339.091 155.442 339.091 155.442C339.091 155.442 343.862 150.441 347.401 153.442C350.941 156.442 349.402 161.675 349.402 161.675C349.402 161.675 351.095 160.597 353.249 161.136C354.403 161.444 354.865 162.213 355.096 162.983C355.327 163.675 355.327 164.291 355.327 164.291C355.327 164.291 357.173 164.445 358.174 165.137C358.558 165.368 358.789 165.753 358.789 166.291Z" fill="#0B4482"/>
<path d="M358.789 166.29C358.712 168.06 344.708 169.983 329.089 170.368C313.469 170.753 303.544 169.214 304.621 167.444C305.698 165.751 311.392 165.136 311.392 165.136C311.392 165.136 306.006 160.981 308.853 155.133C311.777 149.285 318.009 153.44 318.009 153.44C318.009 153.44 316.008 144.515 321.856 141.668C321.241 143.207 320.471 145.669 320.625 148.208C321.01 152.979 322.933 156.672 323.087 156.903C322.779 156.749 316.008 153.363 312.392 155.441C308.699 157.595 314.085 165.905 314.085 165.905C314.085 165.905 309.16 166.982 311.546 168.06C313.931 169.137 337.091 168.983 345.939 167.983C351.864 167.29 356.019 165.982 358.174 165.136C358.558 165.367 358.789 165.751 358.789 166.29Z" fill="#0E2A5A"/>
<path d="M355.097 162.905C354.866 162.751 354.558 162.674 354.327 162.52C352.173 161.443 347.71 163.598 347.71 163.598C347.71 163.598 348.633 156.903 345.94 155.134C343.247 153.364 338.246 159.135 338.246 159.135C338.246 159.135 337.63 155.518 334.476 149.286C332.552 145.516 329.397 142.592 327.166 140.822C335.553 142.053 339.092 155.365 339.092 155.365C339.092 155.365 343.863 150.363 347.402 153.364C350.942 156.365 349.403 161.597 349.403 161.597C349.403 161.597 351.095 160.52 353.25 161.058C354.327 161.289 354.866 162.136 355.097 162.905Z" fill="#09549D"/>
<path d="M239.451 359.035V393.66C239.451 396.43 237.219 398.738 234.372 398.738H144.887C142.117 398.738 139.809 396.507 139.809 393.66V359.035C139.809 356.265 142.04 353.957 144.887 353.957H234.449C237.219 353.957 239.451 356.265 239.451 359.035Z" fill="#E1ECFF"/>
<path d="M154.659 365.961C156.104 365.961 157.275 364.789 157.275 363.345C157.275 361.9 156.104 360.729 154.659 360.729C153.214 360.729 152.043 361.9 152.043 363.345C152.043 364.789 153.214 365.961 154.659 365.961Z" fill="#273D7A"/>
<path d="M163.97 365.961C165.414 365.961 166.586 364.789 166.586 363.345C166.586 361.9 165.414 360.729 163.97 360.729C162.525 360.729 161.354 361.9 161.354 363.345C161.354 364.789 162.525 365.961 163.97 365.961Z" fill="#FF8D76"/>
<path d="M173.202 365.961C174.647 365.961 175.818 364.789 175.818 363.345C175.818 361.9 174.647 360.729 173.202 360.729C171.757 360.729 170.586 361.9 170.586 363.345C170.586 364.789 171.757 365.961 173.202 365.961Z" fill="#FF8D76"/>
<path d="M225.447 377.195H202.595C201.594 377.195 200.748 376.349 200.748 375.349C200.748 374.348 201.594 373.502 202.595 373.502H225.447C226.447 373.502 227.294 374.348 227.294 375.349C227.294 376.349 226.524 377.195 225.447 377.195Z" fill="#273D7A"/>
<path d="M225.91 379.194C228.034 379.194 229.757 377.472 229.757 375.347C229.757 373.222 228.034 371.5 225.91 371.5C223.785 371.5 222.062 373.222 222.062 375.347C222.062 377.472 223.785 379.194 225.91 379.194Z" fill="#FF8D76"/>
<path d="M193.284 398.737H151.504L153.043 394.967C153.812 393.044 155.659 391.812 157.736 391.812H187.129C189.206 391.812 190.976 393.044 191.822 394.967L193.284 398.737Z" fill="#273D7A"/>
<path d="M228.679 398.738H152.043V406.356H228.679V398.738Z" fill="#273D7A"/>
<path d="M228.679 398.738H152.043V402.509H228.679V398.738Z" fill="#072359"/>
<path d="M147.811 353.957V398.738H144.887C142.117 398.738 139.809 396.507 139.809 393.66V359.035C139.809 356.265 142.04 353.957 144.887 353.957H147.811Z" fill="#CDE0FC"/>
<path d="M239.45 359.035V393.66C239.45 396.43 237.219 398.738 234.372 398.738H232.756V353.957H234.372C237.219 353.957 239.45 356.265 239.45 359.035Z" fill="#F0F5FC"/>
<path d="M239.451 318.641V342.955C239.451 345.725 237.219 348.033 234.372 348.033H144.887C142.117 348.033 139.809 345.802 139.809 342.955V318.641C139.809 315.871 142.04 313.562 144.887 313.562H234.449C237.219 313.563 239.451 315.871 239.451 318.641Z" fill="#E1ECFF"/>
<path d="M154.659 325.564C156.104 325.564 157.275 324.393 157.275 322.948C157.275 321.503 156.104 320.332 154.659 320.332C153.214 320.332 152.043 321.503 152.043 322.948C152.043 324.393 153.214 325.564 154.659 325.564Z" fill="#FF8D76"/>
<path d="M163.97 325.564C165.414 325.564 166.586 324.393 166.586 322.948C166.586 321.503 165.414 320.332 163.97 320.332C162.525 320.332 161.354 321.503 161.354 322.948C161.354 324.393 162.525 325.564 163.97 325.564Z" fill="#FF8D76"/>
<path d="M173.202 325.564C174.647 325.564 175.818 324.393 175.818 322.948C175.818 321.503 174.647 320.332 173.202 320.332C171.757 320.332 170.586 321.503 170.586 322.948C170.586 324.393 171.757 325.564 173.202 325.564Z" fill="#273D7A"/>
<path d="M225.447 329.258H202.595C201.594 329.258 200.748 328.411 200.748 327.411C200.748 326.411 201.594 325.564 202.595 325.564H225.447C226.447 325.564 227.294 326.411 227.294 327.411C227.294 328.411 226.524 329.258 225.447 329.258Z" fill="#273D7A"/>
<path d="M225.908 331.183C228.032 331.183 229.755 329.46 229.755 327.335C229.755 325.211 228.032 323.488 225.908 323.488C223.783 323.488 222.061 325.211 222.061 327.335C222.061 329.46 223.783 331.183 225.908 331.183Z" fill="#FF8D76"/>
<path d="M193.284 348.034H151.504L153.043 344.264C153.812 342.34 155.659 341.109 157.736 341.109H187.129C189.206 341.109 190.976 342.34 191.822 344.264L193.284 348.034Z" fill="#273D7A"/>
<path d="M228.679 348.031H152.043V353.956H228.679V348.031Z" fill="#273D7A"/>
<path d="M228.679 348.031H152.043V351.032H228.679V348.031Z" fill="#072359"/>
<path d="M147.811 313.561V347.955H144.887C142.117 347.955 139.809 345.724 139.809 342.877V318.563C139.809 315.793 142.04 313.484 144.887 313.484H147.811V313.561Z" fill="#CDE0FC"/>
<path d="M239.452 318.64V342.954C239.452 345.724 237.221 348.032 234.374 348.032H232.758V313.639H234.374C237.221 313.562 239.452 315.87 239.452 318.64Z" fill="#F0F5FC"/>
<path d="M239.451 283.245V302.558C239.451 305.328 237.219 307.636 234.372 307.636H144.887C142.117 307.636 139.809 305.405 139.809 302.558V283.168C139.809 280.398 142.04 278.09 144.887 278.09H234.449C237.219 278.167 239.451 280.398 239.451 283.245Z" fill="#E1ECFF"/>
<path d="M154.659 290.17C156.104 290.17 157.275 288.998 157.275 287.554C157.275 286.109 156.104 284.938 154.659 284.938C153.214 284.938 152.043 286.109 152.043 287.554C152.043 288.998 153.214 290.17 154.659 290.17Z" fill="#273D7A"/>
<path d="M163.968 290.17C165.412 290.17 166.584 288.998 166.584 287.554C166.584 286.109 165.412 284.938 163.968 284.938C162.523 284.938 161.352 286.109 161.352 287.554C161.352 288.998 162.523 290.17 163.968 290.17Z" fill="#FF8D76"/>
<path d="M173.202 290.17C174.647 290.17 175.818 288.998 175.818 287.554C175.818 286.109 174.647 284.938 173.202 284.938C171.757 284.938 170.586 286.109 170.586 287.554C170.586 288.998 171.757 290.17 173.202 290.17Z" fill="#FF8D76"/>
<path d="M225.447 293.787H202.595C201.594 293.787 200.748 292.941 200.748 291.94C200.748 290.94 201.594 290.094 202.595 290.094H225.447C226.447 290.094 227.294 290.94 227.294 291.94C227.294 292.941 226.524 293.787 225.447 293.787Z" fill="#273D7A"/>
<path d="M225.91 295.788C228.034 295.788 229.757 294.066 229.757 291.941C229.757 289.816 228.034 288.094 225.91 288.094C223.785 288.094 222.062 289.816 222.062 291.941C222.062 294.066 223.785 295.788 225.91 295.788Z" fill="#FF8D76"/>
<path d="M193.284 307.636H151.504L153.043 303.866C153.812 301.942 155.659 300.711 157.736 300.711H187.129C189.206 300.711 190.976 301.942 191.822 303.866L193.284 307.636Z" fill="#273D7A"/>
<path d="M228.679 307.637H152.043V313.561H228.679V307.637Z" fill="#273D7A"/>
<path d="M228.679 307.637H152.043V310.638H228.679V307.637Z" fill="#072359"/>
<path d="M147.811 278.167V307.636H144.887C142.117 307.636 139.809 305.405 139.809 302.558V283.168C139.809 280.398 142.04 278.09 144.887 278.09H147.811V278.167Z" fill="#CDE0FC"/>
<path d="M239.45 283.246V302.559C239.45 305.329 237.219 307.637 234.372 307.637H232.756V278.168H234.372C237.219 278.168 239.45 280.399 239.45 283.246Z" fill="#F0F5FC"/>
<path d="M239.451 247.774V267.163C239.451 269.933 237.219 272.242 234.372 272.242H144.887C142.117 272.242 139.809 270.01 139.809 267.163V247.774C139.809 245.004 142.04 242.695 144.887 242.695H234.449C237.219 242.772 239.451 245.004 239.451 247.774Z" fill="#E1ECFF"/>
<path d="M154.659 254.699C156.104 254.699 157.275 253.528 157.275 252.083C157.275 250.638 156.104 249.467 154.659 249.467C153.214 249.467 152.043 250.638 152.043 252.083C152.043 253.528 153.214 254.699 154.659 254.699Z" fill="#FF8D76"/>
<path d="M163.97 254.699C165.414 254.699 166.586 253.528 166.586 252.083C166.586 250.638 165.414 249.467 163.97 249.467C162.525 249.467 161.354 250.638 161.354 252.083C161.354 253.528 162.525 254.699 163.97 254.699Z" fill="#FF8D76"/>
<path d="M173.202 254.699C174.647 254.699 175.818 253.528 175.818 252.083C175.818 250.638 174.647 249.467 173.202 249.467C171.757 249.467 170.586 250.638 170.586 252.083C170.586 253.528 171.757 254.699 173.202 254.699Z" fill="#273D7A"/>
<path d="M225.447 258.393H202.595C201.594 258.393 200.748 257.546 200.748 256.546C200.748 255.546 201.594 254.699 202.595 254.699H225.447C226.447 254.699 227.294 255.546 227.294 256.546C227.294 257.546 226.524 258.393 225.447 258.393Z" fill="#273D7A"/>
<path d="M225.91 260.394C228.034 260.394 229.757 258.671 229.757 256.546C229.757 254.422 228.034 252.699 225.91 252.699C223.785 252.699 222.062 254.422 222.062 256.546C222.062 258.671 223.785 260.394 225.91 260.394Z" fill="#FF8D76"/>
<path d="M193.284 272.241H151.504L153.043 268.471C153.812 266.548 155.659 265.316 157.736 265.316H187.129C189.206 265.316 190.976 266.548 191.822 268.471L193.284 272.241Z" fill="#273D7A"/>
<path d="M228.679 272.242H152.043V278.167H228.679V272.242Z" fill="#273D7A"/>
<path d="M228.679 272.242H152.043V275.243H228.679V272.242Z" fill="#072359"/>
<path d="M147.811 242.772V272.242H144.887C142.117 272.242 139.809 270.01 139.809 267.163V247.774C139.809 245.004 142.04 242.695 144.887 242.695H147.811V242.772Z" fill="#CDE0FC"/>
<path d="M239.452 247.775V267.165C239.452 269.935 237.221 272.243 234.374 272.243H232.758V242.773H234.374C237.221 242.773 239.452 245.005 239.452 247.775Z" fill="#F0F5FC"/>
<path d="M295.079 312.022V401.893C295.079 404.278 293.078 406.278 290.693 406.278H245.835C243.373 406.278 241.449 404.278 241.449 401.893V312.022C241.449 309.56 243.45 307.637 245.835 307.637H290.693C293.078 307.637 295.079 309.637 295.079 312.022Z" fill="#D3B2FF"/>
<path d="M255.684 307.637V406.278H245.835C243.373 406.278 241.449 404.278 241.449 401.893V312.022C241.449 309.56 243.45 307.637 245.835 307.637H255.684Z" fill="#874DD6"/>
<path d="M247.452 317.945H270.458C271.689 317.945 272.612 318.946 272.612 320.1V330.487C272.612 331.718 271.612 332.642 270.458 332.642H247.452C246.22 332.642 245.297 331.641 245.297 330.487V320.1C245.22 318.869 246.22 317.945 247.452 317.945Z" fill="#5A7FDB"/>
<path d="M291.232 320.1V330.487C291.232 331.718 290.231 332.642 289.077 332.642H278.459C277.228 332.642 276.305 331.641 276.305 330.487V320.1C276.305 318.869 277.305 317.945 278.459 317.945H289.077C290.231 317.945 291.232 318.869 291.232 320.1Z" fill="#273D7A"/>
<path d="M274.612 398.737H261.839C260.916 398.737 260.146 397.967 260.146 397.044V377.423C260.146 376.5 260.916 375.73 261.839 375.73H274.612C275.535 375.73 276.305 376.5 276.305 377.423V397.044C276.305 397.967 275.535 398.737 274.612 398.737Z" fill="#273D7A"/>
<path d="M273.613 388.733H262.84C262.148 388.733 261.609 388.194 261.609 387.502V379.038C261.609 378.345 262.148 377.807 262.84 377.807H273.613C274.305 377.807 274.844 378.345 274.844 379.038V387.502C274.921 388.194 274.305 388.733 273.613 388.733Z" fill="#142966"/>
<path d="M273.459 396.66H262.994C262.225 396.66 261.609 396.044 261.609 395.275V391.658C261.609 390.889 262.225 390.273 262.994 390.273H273.459C274.228 390.273 274.844 390.889 274.844 391.658V395.275C274.921 396.044 274.228 396.66 273.459 396.66Z" fill="#142966"/>
<path d="M268.225 395.505C269.33 395.505 270.226 394.609 270.226 393.504C270.226 392.4 269.33 391.504 268.225 391.504C267.12 391.504 266.225 392.4 266.225 393.504C266.225 394.609 267.12 395.505 268.225 395.505Z" fill="#FEC272"/>
<path d="M291.232 339.184V367.192C291.232 368.5 290.232 369.577 288.923 369.577H247.451C246.681 369.577 245.912 369.115 245.527 368.5C245.296 368.115 245.143 367.653 245.143 367.192V339.184C245.143 337.876 246.143 336.799 247.451 336.799H288.923C290.001 336.799 290.924 337.568 291.155 338.645C291.232 338.876 291.232 339.03 291.232 339.184Z" fill="#273D7A"/>
<path d="M289.538 340.721V365.728C289.538 366.882 288.615 367.805 287.461 367.805H249.066C248.296 367.805 247.681 367.42 247.296 366.805C247.065 366.497 246.988 366.112 246.988 365.651V340.644C246.988 339.49 247.912 338.566 249.066 338.566H287.461C288.461 338.566 289.307 339.259 289.538 340.259C289.538 340.413 289.538 340.567 289.538 340.721Z" fill="#94ADEA"/>
<path d="M289.539 340.259L259.608 367.882H249.067C248.297 367.882 247.682 367.497 247.297 366.882L277.997 338.566H287.461C288.462 338.566 289.308 339.259 289.539 340.259Z" fill="#738DE0"/>
<path d="M289.538 350.34V362.651L283.921 367.883H270.533L289.538 350.34Z" fill="#738DE0"/>
<path d="M265.071 338.566L246.912 355.34V342.952L251.683 338.566H265.071Z" fill="#738DE0"/>
<path d="M225.906 241.389H181.74L182.51 239.234L187.203 226.539L191.358 215.228L196.052 202.532L200.822 189.452C200.976 188.913 201.284 188.529 201.669 188.221C203.208 186.759 205.977 187.221 206.824 189.452L208.747 194.761L211.671 202.763L214.287 209.919L217.211 217.921L219.827 225.077L222.751 233.079L225.906 241.389Z" fill="#FF8D76"/>
<path d="M211.672 202.764L198.284 210.997L191.359 215.229L195.976 202.61L199.9 200.225L208.749 194.762L211.672 202.764Z" fill="#273D7A"/>
<path d="M217.211 217.846L195.205 231.388L182.51 239.236L187.203 226.541L196.821 220.616L214.287 209.844L217.211 217.846Z" fill="#273D7A"/>
<path d="M222.828 233.002L209.132 241.389H193.281L193.743 241.081L219.904 225L222.828 233.002Z" fill="#273D7A"/>
<path d="M201.669 188.221L193.743 241.389H181.74L182.51 239.234L187.203 226.539L191.358 215.228L196.052 202.532L200.822 189.452C201.053 188.99 201.284 188.528 201.669 188.221Z" fill="#FF8D76"/>
<path d="M193.281 241.39L193.743 241.082V241.39H193.281Z" fill="#FF8D76"/>
<path d="M196.821 220.613L195.205 231.385L182.51 239.234L187.203 226.538L196.821 220.613Z" fill="#072359"/>
<path d="M199.898 200.225L198.282 210.997L191.357 215.229L195.974 202.61L199.898 200.225Z" fill="#072359"/>
<path d="M226.521 242.776H179.97C178.585 242.776 177.508 241.621 177.508 240.313V240.159C177.508 238.774 178.662 237.697 179.97 237.697H226.521C227.906 237.697 228.983 238.851 228.983 240.159V240.313C228.983 241.621 227.906 242.776 226.521 242.776Z" fill="#FF8D76"/>
<path d="M140.421 234.771L130.264 208.918L123.801 212.38L139.651 235.156L140.421 234.771Z" fill="#FEC272"/>
<path d="M113.952 208.918L107.797 215.535L135.65 238.618L136.882 237.464L113.952 208.918Z" fill="#FEC272"/>
<path d="M113.26 226.154L109.721 232.002L132.881 242.236L133.419 241.312L113.26 226.154Z" fill="#FEC272"/>
<path d="M290.231 287.707L288.615 298.787C288.615 298.787 293.309 298.556 296.848 301.557C301.465 305.558 302.003 309.251 302.003 309.251L319.393 300.403C319.393 300.403 307.774 304.25 303.927 300.326C300.08 296.402 303.311 288.476 303.311 288.476C303.311 288.476 298.156 295.171 294.309 294.016C290.539 292.939 290.231 287.707 290.231 287.707Z" fill="#FEC272"/>
</svg>
