<svg width="150" height="30" viewBox="0 0 150 30" fill="none" xmlns="http://www.w3.org/2000/svg">
<path d="M15.7509 23.259H8.01952V17.9656H15.7509C17.7567 17.9656 18.8392 19.0885 18.8392 20.5727C18.8392 22.0562 17.7567 23.259 15.7509 23.259ZM8.01952 7.5384H14.9498C16.7136 7.5384 17.7567 8.30013 17.7567 9.98493C17.7567 11.4685 16.7136 12.3511 14.9498 12.3511H8.01952V7.5384ZM21.5668 14.8375C24.0529 14.0353 25.6573 11.7894 25.6573 9.02234C25.6573 4.53049 22.2086 1.5628 16.0323 1.5628H0.399902V29.235H16.1928C22.8903 29.235 26.8608 26.0663 26.8608 20.9733C26.8608 18.0856 24.7751 15.6792 21.5668 14.8375" fill="white"/>
<path d="M29.4067 29.235H37.2804V1.5628H29.4067V29.235Z" fill="white"/>
<path d="M103.803 18.7274L104.524 16.4015C105.407 13.634 106.129 11.4283 106.689 9.2226H106.935C107.456 11.4283 108.098 13.634 108.98 16.4015L109.702 18.7274H103.803ZM102.041 1.5628L92.3364 29.235H100.514L101.717 25.3448H111.828L113.071 29.235H121.774L112.068 1.5628H102.041Z" fill="white"/>
<path d="M134.554 22.2166H131.106V8.58081H134.554C138.846 8.58081 141.052 11.6289 141.052 15.3986C141.052 19.1287 138.846 22.2166 134.554 22.2166V22.2166ZM134.675 1.5628H123.285V29.235H134.675C143.859 29.235 149.514 22.9786 149.514 15.3986C149.514 7.77862 143.859 1.5628 134.675 1.5628" fill="white"/>
<path d="M74.4068 11.1949C75.8363 9.46918 78.0724 8.3166 80.2292 8.3166C82.7642 8.3166 84.6685 9.31949 86.9845 11.3735L87.5171 11.8596L91.6263 6.02347L91.4213 5.79847C88.573 2.67469 84.4936 0.88283 80.2292 0.88283C75.3111 0.88283 70.7173 3.72826 68.5302 6.37238C66.9115 8.32914 65.6995 10.6662 64.4167 13.1405C62.2171 17.3823 60.4775 20.4057 57.9854 21.7305L57.982 21.7366L57.9779 21.7346C57.0575 22.2227 56.0351 22.4811 54.8474 22.4811C52.9011 22.4811 51.071 21.744 49.6946 20.4064C48.3175 19.0688 47.5602 17.2904 47.5602 15.3985C47.5602 11.4935 50.8295 8.3166 54.8474 8.3166C57.6283 8.3166 59.8756 9.39991 61.5246 11.5377L61.6108 11.6489L65.3763 5.12633C62.5751 2.42444 58.7896 0.88283 54.8474 0.88283C46.6106 0.88283 39.9102 7.39447 39.9102 15.3985C39.9102 23.4025 46.6106 29.9146 54.8474 29.9146C64.2843 29.9146 68.3089 22.1527 71.2516 16.4791C72.347 14.3673 73.2938 12.5375 74.4068 11.1949Z" fill="white"/>
<path d="M87.7275 18.3709C86.1321 20.8546 83.3853 22.4955 80.2615 22.4955C80.2328 22.4955 80.2051 22.4938 80.176 22.4935C80.1544 22.4938 80.1315 22.4955 80.1105 22.4955C78.7168 22.4955 77.4073 22.157 76.2142 21.5034C75.134 20.9407 74.1832 20.1574 73.413 19.2147L69.6924 25.6588C72.4375 28.3543 76.1541 29.8844 80.1105 29.8844C84.531 29.8844 88.6744 27.9807 91.4795 24.661L92.5224 23.5267L87.7275 18.3709" fill="white"/>
</svg>
