<svg width="56" height="32" viewBox="0 0 56 32" fill="none" xmlns="http://www.w3.org/2000/svg">
<path d="M36.6222 11.5749C38.127 9.7584 40.4807 8.54516 42.751 8.54516C45.4194 8.54516 47.424 9.60084 49.8618 11.763L50.4226 12.2746L54.7479 6.13133L54.5322 5.8945C51.5339 2.60631 47.2399 0.720139 42.751 0.720139C37.5741 0.720139 32.7385 3.71533 30.4363 6.49861C28.7324 8.55836 27.4567 11.0184 26.1063 13.6229C23.7909 18.088 21.9598 21.2706 19.3365 22.6651L19.3329 22.6715L19.3286 22.6693C18.3598 23.1831 17.2835 23.4551 16.0333 23.4551C13.9846 23.4551 12.0582 22.6793 10.6093 21.2713C9.15978 19.8633 8.36261 17.9913 8.36261 15.9998C8.36261 11.8892 11.804 8.54516 16.0333 8.54516C18.9606 8.54516 21.3262 9.68549 23.062 11.9357L23.1527 12.0528L27.1164 5.18698C24.1678 2.34289 20.1831 0.720139 16.0333 0.720139C7.36309 0.720139 0.309937 7.5745 0.309937 15.9998C0.309937 24.4251 7.36309 31.2798 16.0333 31.2798C25.9669 31.2798 30.2034 23.1095 33.3009 17.1372C34.454 14.9143 35.4506 12.9882 36.6222 11.5749Z" fill="white"/>
<path d="M50.643 19.1291C48.9635 21.7435 46.0722 23.4708 42.784 23.4708C42.7538 23.4708 42.7245 23.469 42.694 23.4687C42.6712 23.469 42.6471 23.4708 42.6251 23.4708C41.158 23.4708 39.7795 23.1145 38.5237 22.4265C37.3866 21.8342 36.3857 21.0096 35.575 20.0173L31.6586 26.8006C34.5482 29.6379 38.4604 31.2486 42.6251 31.2486C47.2782 31.2486 51.6397 29.2447 54.5924 25.7503L55.6901 24.5563L50.643 19.1291" fill="white"/>
</svg>
