<svg width="31" height="30" viewBox="0 0 31 30" fill="none" xmlns="http://www.w3.org/2000/svg">
<path d="M20.4975 10V6.78571C20.4975 4.41878 18.2589 2.5 15.4975 2.5C12.7361 2.5 10.4975 4.41878 10.4975 6.78572V10M14.8311 27.5H16.1628C19.0456 27.5 20.487 27.5 21.6736 26.9872C22.7202 26.5349 23.6231 25.805 24.2847 24.8764C25.0347 23.8236 25.3367 22.4141 25.9408 19.5953L26.4418 17.2572C26.974 14.7735 27.2401 13.5316 26.9137 12.558C26.6275 11.7042 26.0436 10.9819 25.2687 10.5232C24.3851 10 23.1151 10 20.575 10H10.4188C7.87876 10 6.60873 10 5.72511 10.5232C4.95024 10.9819 4.36633 11.7042 4.0801 12.558C3.75369 13.5316 4.0198 14.7735 4.55202 17.2572L5.05305 19.5953C5.65708 22.4141 5.9591 23.8236 6.70916 24.8764C7.37068 25.805 8.27361 26.5349 9.32018 26.9872C10.5068 27.5 11.9482 27.5 14.8311 27.5Z" stroke="#A3A3A3" stroke-width="1.5" stroke-linecap="round" stroke-linejoin="round"/>
</svg>
