<svg width="31" height="30" viewBox="0 0 31 30" fill="none" xmlns="http://www.w3.org/2000/svg">
<path d="M10.7892 8.43137V5.71569C10.7892 4.99544 11.0753 4.3047 11.5846 3.79541C12.0939 3.28612 12.7847 3 13.5049 3H18.9363C19.6565 3 20.3473 3.28612 20.8566 3.79541C21.3658 4.3047 21.652 4.99544 21.652 5.71569V8.43137M16.2206 15.2206V15.2342M4 11.1471C4 10.4268 4.28612 9.73607 4.79541 9.22678C5.3047 8.71749 5.99544 8.43137 6.71569 8.43137H25.7255C26.4457 8.43137 27.1365 8.71749 27.6458 9.22678C28.1551 9.73607 28.4412 10.4268 28.4412 11.1471V23.3676C28.4412 24.0879 28.1551 24.7786 27.6458 25.2879C27.1365 25.7972 26.4457 26.0833 25.7255 26.0833H6.71569C5.99544 26.0833 5.3047 25.7972 4.79541 25.2879C4.28612 24.7786 4 24.0879 4 23.3676V11.1471Z" stroke="#A3A3A3" stroke-width="1.43772" stroke-linecap="round" stroke-linejoin="round"/>
<path d="M4 16.5789C7.79053 18.4889 11.976 19.4839 16.2206 19.4839C20.4652 19.4839 24.6506 18.4889 28.4412 16.5789" stroke="#A3A3A3" stroke-width="1.43772" stroke-linecap="round" stroke-linejoin="round"/>
</svg>
