<svg width="31" height="30" viewBox="0 0 31 30" fill="none" xmlns="http://www.w3.org/2000/svg">
<path d="M5.5 21.25C5.5 21.913 5.76339 22.5489 6.23223 23.0178C6.70107 23.4866 7.33696 23.75 8 23.75C8.66304 23.75 9.29893 23.4866 9.76777 23.0178C10.2366 22.5489 10.5 21.913 10.5 21.25C10.5 20.587 10.2366 19.9511 9.76777 19.4822C9.29893 19.0134 8.66304 18.75 8 18.75C7.33696 18.75 6.70107 19.0134 6.23223 19.4822C5.76339 19.9511 5.5 20.587 5.5 21.25ZM20.5 21.25C20.5 21.913 20.7634 22.5489 21.2322 23.0178C21.7011 23.4866 22.337 23.75 23 23.75C23.663 23.75 24.2989 23.4866 24.7678 23.0178C25.2366 22.5489 25.5 21.913 25.5 21.25C25.5 20.587 25.2366 19.9511 24.7678 19.4822C24.2989 19.0134 23.663 18.75 23 18.75C22.337 18.75 21.7011 19.0134 21.2322 19.4822C20.7634 19.9511 20.5 20.587 20.5 21.25Z" stroke="#A3A3A3" stroke-width="1.5" stroke-linecap="round" stroke-linejoin="round"/>
<path d="M5.5 21.25H3V7.5C3 7.16848 3.1317 6.85054 3.36612 6.61612C3.60054 6.3817 3.91848 6.25 4.25 6.25H21.75C23.4076 6.25 24.9973 7.17187 26.1694 8.81282C27.3415 10.4538 28 12.6794 28 15V21.25H25.5M20.5 21.25H10.5" stroke="#A3A3A3" stroke-width="1.5" stroke-linecap="round" stroke-linejoin="round"/>
<path d="M20.5 6.25L22.375 15H28M3 12.5H21.75M9.25 6.25V12.5M15.5 6.25V12.5" stroke="#A3A3A3" stroke-width="1.5" stroke-linecap="round" stroke-linejoin="round"/>
</svg>
