<svg width="31" height="30" viewBox="0 0 31 30" fill="none" xmlns="http://www.w3.org/2000/svg">
<path d="M6.36775 10.767C5.73478 7.62616 7.7322 4.89746 10.4775 3.29477C11.5169 2.68796 12.8459 3.04807 13.446 4.09909L15.3194 7.38012C15.7339 8.10603 15.4879 9.03424 14.77 9.45334C13.6946 10.0812 13.1092 11.3169 13.4411 12.5269C13.7257 13.5643 14.1578 14.8537 14.7767 16.0345C15.5384 17.4877 16.6566 18.8035 17.5608 19.737C18.4297 20.634 19.7796 20.7387 20.8549 20.1109C21.5729 19.6917 22.491 19.9405 22.9055 20.6665L24.3335 23.1675C24.9336 24.2186 24.5775 25.5625 23.5381 26.1693C20.7928 27.772 17.4571 28.1568 15.0836 26.0321C13.463 24.5813 11.5399 22.3714 9.63547 19.036C7.73107 15.7006 6.79994 12.9116 6.36775 10.767Z" stroke="#A3A3A3" stroke-width="1.5" stroke-linecap="round"/>
</svg>
