<svg width="31" height="30" viewBox="0 0 31 30" fill="none" xmlns="http://www.w3.org/2000/svg">
<path d="M3 18.9286V15.2683C3 13.4902 4.40711 12.0488 6.14286 12.0488M3 18.9286C3 20.7067 4.40711 22.1481 6.14286 22.1481H25C26.7358 22.1481 28.1429 20.7067 28.1429 18.9286M3 18.9286V23.8537C3 25.0391 3.93807 26 5.09524 26H7.19048C8.34764 26 9.28571 25.0391 9.28571 23.8537V22.1481M28.1429 18.9286V15.2683C28.1429 13.4902 26.7358 12.0488 25 12.0488H6.14286M28.1429 18.9286V23.8537C28.1429 25.0391 27.2048 26 26.0476 26H23.9524C22.7952 26 21.8571 25.0391 21.8571 23.8537V22.1481M6.14286 12.0488L7.82333 5.59331C8.06792 4.65374 8.89857 4 9.84782 4H21.3946C22.2965 4 23.0971 4.59117 23.3823 5.46761L25.5238 12.0488M6.66667 16.878H10.3333M20.8095 16.878H24.4762" stroke="#A3A3A3" stroke-width="1.43478" stroke-linecap="round" stroke-linejoin="round"/>
</svg>
