<svg width="31" height="30" viewBox="0 0 31 30" fill="none" xmlns="http://www.w3.org/2000/svg">
<g clip-path="url(#clip0_1878_38122)">
<path d="M15.9984 15.5V18.2M7.89844 20.225C7.89844 19.867 8.04067 19.5236 8.29384 19.2704C8.54702 19.0172 8.8904 18.875 9.24844 18.875H22.7484C23.1065 18.875 23.4499 19.0172 23.703 19.2704C23.9562 19.5236 24.0984 19.867 24.0984 20.225C24.0984 20.9411 23.814 21.6278 23.3076 22.1342C22.8013 22.6405 22.1145 22.925 21.3984 22.925H10.5984C9.88235 22.925 9.1956 22.6405 8.68925 22.1342C8.1829 21.6278 7.89844 20.9411 7.89844 20.225ZM8.74624 8.4341C9.07294 5.7179 9.23494 4.36115 10.0206 3.4337C10.2699 3.13928 10.5599 2.88198 10.8819 2.6696C11.8944 2 13.2633 2 15.9984 2C18.7335 2 20.1011 2 21.1149 2.6696C21.437 2.88198 21.727 3.13928 21.9762 3.4337C22.7619 4.36115 22.9253 5.7179 23.2506 8.4341L23.3735 9.45605C23.711 12.2748 23.8811 13.6842 23.0751 14.5914C22.2692 15.5 20.8503 15.5 18.0126 15.5H13.9856C11.1465 15.5 9.72769 15.5 8.92309 14.5914C8.11714 13.6842 8.28589 12.2748 8.62339 9.45605L8.74624 8.4341Z" stroke="#A3A3A3" stroke-width="1.5"/>
<path d="M16 28.9997V26.2997M16 26.2997V22.9247M16 26.2997L16.6291 26.4563C17.2638 26.615 17.8482 26.9313 18.3282 27.3758C18.8082 27.8204 19.1683 28.379 19.375 28.9997M16 26.2997L15.3709 26.4563C14.7362 26.615 14.1517 26.9313 13.6718 27.3758C13.1918 27.8204 12.8317 28.379 12.625 28.9997M7.9 20.8997L6.73225 17.3965C6.6337 17.0995 6.58375 16.951 6.48925 16.7458C6.42691 16.6071 6.35472 16.4731 6.27325 16.3448C5.659 15.3323 4.83955 14.8247 2.5 14.8247M24.1 20.8997L25.2677 17.3965C25.3663 17.0995 25.4162 16.951 25.5107 16.7458C25.6079 16.5392 25.6457 16.4744 25.7267 16.3448C26.3423 15.3323 27.1618 14.8247 29.5 14.8247" stroke="#A3A3A3" stroke-width="1.5" stroke-linecap="round"/>
</g>
<defs>
<clipPath id="clip0_1878_38122">
<rect width="30" height="30" fill="white" transform="translate(0.5)"/>
</clipPath>
</defs>
</svg>
