<svg width="30" height="30" viewBox="0 0 30 30" fill="none" xmlns="http://www.w3.org/2000/svg">
<path d="M19.261 27.7493V3.96117C19.261 3.43033 18.8307 3 18.2999 3H11.973C11.4421 3 11.0118 3.43033 11.0118 3.96116V27.7493M19.261 27.7493L19.2588 13.2968C19.2587 12.7659 19.689 12.3355 20.2199 12.3355H26.5466C27.0775 12.3355 27.5078 12.7658 27.5078 13.2966V26.7882C27.5078 27.319 27.0775 27.7493 26.5466 27.7493H19.261ZM19.261 27.7493H11.0118M11.0118 27.7493V20.5406C11.0118 20.0098 10.5815 19.5794 10.0507 19.5794H3.95929C3.42846 19.5794 2.99813 20.0098 2.99813 20.5406V26.7882C2.99813 27.319 3.42846 27.7493 3.95929 27.7493H11.0118Z" stroke="#A3A3A3" stroke-width="1.44175" stroke-linecap="round" stroke-linejoin="round"/>
</svg>
