<svg width="31" height="30" viewBox="0 0 31 30" fill="none" xmlns="http://www.w3.org/2000/svg">
<path d="M10.9484 14.6576C10.9484 14.9503 10.7111 15.1875 10.4185 15.1875C10.1258 15.1875 9.88859 14.9503 9.88859 14.6576C9.88859 14.365 10.1258 14.1277 10.4185 14.1277C10.7111 14.1277 10.9484 14.365 10.9484 14.6576ZM10.9484 14.6576H10.4185M16.2473 14.6576C16.2473 14.9503 16.01 15.1875 15.7174 15.1875C15.4247 15.1875 15.1875 14.9503 15.1875 14.6576C15.1875 14.365 15.4247 14.1277 15.7174 14.1277C16.01 14.1277 16.2473 14.365 16.2473 14.6576ZM16.2473 14.6576H15.7174M21.5462 14.6576C21.5462 14.9503 21.309 15.1875 21.0163 15.1875C20.7237 15.1875 20.4864 14.9503 20.4864 14.6576C20.4864 14.365 20.7237 14.1277 21.0163 14.1277C21.309 14.1277 21.5462 14.365 21.5462 14.6576ZM21.5462 14.6576H21.0163M28.4348 14.6576C28.4348 21.0959 22.741 26.3152 15.7174 26.3152C14.4634 26.3152 13.2517 26.1488 12.1073 25.8388C10.7296 26.8068 9.05066 27.375 7.23913 27.375C6.95763 27.375 6.67923 27.3613 6.40497 27.3345C6.17935 27.3125 5.9558 27.2816 5.73536 27.2421C6.4186 26.4357 6.90391 25.457 7.11745 24.3805C7.24554 23.7347 6.92926 23.1075 6.45749 22.6482C4.31371 20.5615 3 17.7502 3 14.6576C3 8.21929 8.69377 3 15.7174 3C22.741 3 28.4348 8.21929 28.4348 14.6576Z" stroke="#A3A3A3" stroke-width="1.5" stroke-linecap="round" stroke-linejoin="round"/>
</svg>
