<svg width="31" height="30" viewBox="0 0 31 30" fill="none" xmlns="http://www.w3.org/2000/svg">
<path d="M3 27.6501H28.9474" stroke="#A3A3A3" stroke-width="1.5" stroke-linecap="round" stroke-linejoin="round"/>
<path d="M9.49367 17.271H6.89893C6.18241 17.271 5.60156 17.8518 5.60156 18.5684V26.3526C5.60156 27.0691 6.18241 27.6499 6.89893 27.6499H9.49367C10.2102 27.6499 10.791 27.0691 10.791 26.3526V18.5684C10.791 17.8518 10.2102 17.271 9.49367 17.271Z" stroke="#A3A3A3" stroke-width="1.5" stroke-linejoin="round"/>
<path d="M8.1875 22.4604H8.83618" stroke="#A3A3A3" stroke-width="1.5" stroke-linecap="round" stroke-linejoin="round"/>
<path d="M25.0601 3H12.0864C11.3699 3 10.7891 3.58085 10.7891 4.29737V26.3526C10.7891 27.0692 11.3699 27.65 12.0864 27.65H25.0601C25.7766 27.65 26.3575 27.0692 26.3575 26.3526V4.29737C26.3575 3.58085 25.7766 3 25.0601 3Z" stroke="#A3A3A3" stroke-width="1.5" stroke-linejoin="round"/>
<path d="M15.4219 8.73707V7.64233H16.5166V8.73707H15.4219ZM20.6114 8.73707V7.64233H21.7061V8.73707H20.6114ZM15.4219 13.2779V12.1831H16.5166V13.2779H15.4219ZM20.6114 13.2779V12.1831H21.7061V13.2779H20.6114ZM20.6114 17.8187V16.7239H21.7061V17.8187H20.6114ZM20.6114 22.3594V21.2647H21.7061V22.3594H20.6114Z" fill="#A3A3A3" stroke="#A3A3A3" stroke-width="1.5"/>
</svg>
