<svg width="30" height="30" viewBox="0 0 30 30" fill="none" xmlns="http://www.w3.org/2000/svg">
<path d="M20.624 23.5277H9.42707M20.624 23.5277C22.6853 23.5277 24.3563 25.1987 24.3563 27.26H5.69476C5.69476 25.1987 7.36577 23.5277 9.42707 23.5277M20.624 23.5277V19.3288C20.624 18.5559 19.9974 17.9292 19.2244 17.9292H18.14M9.42707 23.5277V19.3288C9.42707 18.5559 10.0537 17.9292 10.8267 17.9292H11.9111M18.14 17.9292H11.9111M18.14 17.9292C17.459 16.7521 17.0279 15.4124 16.919 13.9826M11.9111 17.9292C12.592 16.7521 13.0232 15.4124 13.1321 13.9826M6.62784 5.47123C5.40576 5.64894 4.19606 5.86486 3 6.11773C3.56024 9.43635 6.3105 12.0108 9.71278 12.3031M6.62784 5.47123V5.79923C6.62784 8.42153 7.82977 10.7631 9.71278 12.3031M6.62784 5.47123V3.58584C9.37161 3.19969 12.1753 3 15.0255 3C17.8758 3 20.6794 3.19969 23.4232 3.58584V5.47123M9.71278 12.3031C10.6926 13.1044 11.8568 13.6887 13.1321 13.9826M23.4232 5.47123V5.79923C23.4232 8.42153 22.2213 10.7631 20.3383 12.3031M23.4232 5.47123C24.6453 5.64895 25.855 5.86486 27.0511 6.11774C26.4908 9.43636 23.7406 12.0108 20.3383 12.3031M20.3383 12.3031C19.3585 13.1044 18.1942 13.6887 16.919 13.9826M16.919 13.9826C16.3104 14.1228 15.6766 14.1969 15.0255 14.1969C14.3744 14.1969 13.7406 14.1228 13.1321 13.9826" stroke="#A3A3A3" stroke-width="1.5" stroke-linecap="round" stroke-linejoin="round"/>
</svg>
