<svg width="31" height="30" viewBox="0 0 31 30" fill="none" xmlns="http://www.w3.org/2000/svg">
<path d="M15.7328 21.5003C8.53286 21.5003 7.25787 14.3253 7.03288 8.63279C6.96913 7.05029 6.93788 6.25779 7.53287 5.52654C8.12661 4.79404 8.83785 4.67404 10.2616 4.43404C12.0701 4.13764 13.9002 3.99255 15.7328 4.00029C17.9627 4.00029 19.799 4.19654 21.204 4.43404C22.6277 4.67404 23.3389 4.79404 23.9339 5.52654C24.5289 6.25904 24.4964 7.05029 24.4339 8.63279C24.2089 14.324 22.9339 21.5003 15.734 21.5003H15.7328Z" stroke="#A3A3A3" stroke-width="1.5"/>
<path d="M16 22V25.75" stroke="#A3A3A3" stroke-width="1.5" stroke-linecap="round"/>
<path d="M21 29H11L11.4857 26.9648C11.5504 26.6929 11.7252 26.4482 11.9805 26.2723C12.2357 26.0964 12.5556 26.0002 12.8857 26H19.1143C19.4444 26.0002 19.7643 26.0964 20.0195 26.2723C20.2747 26.4482 20.4496 26.6929 20.5143 26.9648L21 29Z" stroke="#A3A3A3" stroke-width="1.5" stroke-linecap="round" stroke-linejoin="round"/>
<path d="M24.2497 7.75024L25.436 8.14524C26.6735 8.55774 27.2922 8.76399 27.646 9.25524C27.9997 9.74649 27.9997 10.399 27.9997 11.7027V11.794C27.9997 12.869 27.9997 13.4077 27.741 13.8477C27.4822 14.2877 27.011 14.549 26.071 15.0727L22.3748 17.1252M6.74996 7.75024L5.56372 8.14524C4.32623 8.55774 3.70749 8.76399 3.35375 9.25524C3 9.74649 3 10.4002 3 11.7027V11.794C3 12.869 3 13.4077 3.25875 13.8477C3.51749 14.2877 3.98874 14.549 4.92873 15.0727L8.62493 17.1252M14.4324 9.02899C14.9074 8.17524 15.1449 7.75024 15.4999 7.75024C15.8548 7.75024 16.0923 8.17524 16.5673 9.02899L16.6898 9.24899C16.8248 9.49149 16.8923 9.61149 16.9973 9.69149C17.1036 9.77149 17.2348 9.80149 17.4973 9.86024L17.7348 9.91524C18.6573 10.124 19.1186 10.2277 19.2286 10.5802C19.3386 10.934 19.0236 11.3015 18.3948 12.0365L18.2323 12.2265C18.0536 12.4352 17.9636 12.539 17.9236 12.669C17.8836 12.799 17.8973 12.9377 17.9236 13.2165L17.9486 13.4702C18.0436 14.4515 18.0911 14.9427 17.8048 15.1602C17.5173 15.3777 17.0848 15.179 16.2211 14.7815L15.9986 14.679C15.7523 14.5665 15.6299 14.5102 15.4999 14.5102C15.3699 14.5102 15.2474 14.5665 15.0011 14.679L14.7786 14.7815C13.9149 15.1802 13.4824 15.3777 13.1949 15.1602C12.9074 14.9427 12.9561 14.4515 13.0511 13.4702L13.0761 13.2165C13.1024 12.9377 13.1161 12.799 13.0761 12.669C13.0361 12.5402 12.9461 12.4352 12.7674 12.2265L12.6049 12.0365C11.9761 11.3015 11.6611 10.934 11.7711 10.5802C11.8811 10.2277 12.3424 10.124 13.2649 9.91524L13.5024 9.86024C13.7649 9.80149 13.8961 9.77274 14.0024 9.69149C14.1074 9.61149 14.1749 9.49149 14.3099 9.24899L14.4324 9.02899Z" stroke="#A3A3A3" stroke-width="1.5"/>
<path d="M24 29H8" stroke="#A3A3A3" stroke-width="1.5" stroke-linecap="round"/>
</svg>
