<svg width="31" height="30" viewBox="0 0 31 30" fill="none" xmlns="http://www.w3.org/2000/svg">
<path d="M11.5887 21.7727C11.5887 23.8312 9.96102 25.5 7.9532 25.5C5.94539 25.5 4.31773 23.8312 4.31773 21.7727M11.5887 21.7727C11.5887 19.7142 9.96102 18.0455 7.9532 18.0455C5.94539 18.0455 4.31773 19.7142 4.31773 21.7727M11.5887 21.7727H19.7685M4.31773 21.7727H2.5V6C2.5 5.44772 2.94772 5 3.5 5H19.7685V21.7727M27.9483 21.7727C27.9483 23.8312 26.3206 25.5 24.3128 25.5C22.305 25.5 20.6773 23.8312 20.6773 21.7727M27.9483 21.7727C27.9483 19.7142 26.3206 18.0455 24.3128 18.0455C22.305 18.0455 20.6773 19.7142 20.6773 21.7727M27.9483 21.7727H28.8571V14.3182L24.3128 9.65909H19.7685V21.7727M20.6773 21.7727H19.7685" stroke="#A3A3A3" stroke-width="1.5" stroke-linecap="round" stroke-linejoin="round"/>
</svg>
