<svg width="30" height="30" viewBox="0 0 30 30" fill="none" xmlns="http://www.w3.org/2000/svg">
<path d="M14.7574 7.22533V11.1443C14.7574 11.8658 15.3423 12.4507 16.0637 12.4507H19.9827M22.5954 2H13.4508C12.0078 2 10.8381 3.16972 10.8381 4.61265V7.22533M22.5954 2H23.3241C23.692 2 24.0422 2.15495 24.2956 2.4216C24.6765 2.82231 25.2798 3.4393 25.8612 3.9595C26.3169 4.3672 27.0328 5.09889 27.4614 5.54357C27.6933 5.78405 27.8207 6.10514 27.8207 6.43917L27.8207 7.22533M22.5954 2V5.919C22.5954 6.64046 23.1802 7.22533 23.9017 7.22533H27.8207M27.8207 7.22533L27.8204 20.2887C27.8203 21.7316 26.6506 22.9013 25.2077 22.9013H19.9823M18.0232 9.18482C17.4418 8.66462 16.8385 8.04764 16.4576 7.64692C16.2042 7.38027 15.854 7.22533 15.4861 7.22533H5.61276C4.16984 7.22533 3.00011 8.39505 3.0001 9.83798L3 25.5139C2.99999 26.9568 4.16972 28.1266 5.61265 28.1266L17.3697 28.1266C18.8126 28.1266 19.9823 26.9569 19.9824 25.514L19.9827 11.6645C19.9827 11.3305 19.8553 11.0094 19.6235 10.7689C19.1948 10.3242 18.4789 9.59253 18.0232 9.18482Z" stroke="#A3A3A3" stroke-width="1.5" stroke-linecap="round" stroke-linejoin="round"/>
</svg>
