<svg width="31" height="30" viewBox="0 0 31 30" fill="none" xmlns="http://www.w3.org/2000/svg">
<path d="M25.9933 13.38V8.79333C25.9933 8.24105 25.5456 7.79333 24.9933 7.79333H15.2342C14.969 7.79333 14.7146 7.68798 14.5271 7.50044L12.3196 5.29289C12.132 5.10536 11.8777 5 11.6125 5H3.25C2.69772 5 2.25 5.44771 2.25 6V24.95C2.25 25.5023 2.69772 25.95 3.25 25.95H5.44C5.99228 25.95 6.44 25.5023 6.44 24.95V24.7347C6.44 24.6148 6.46157 24.4958 6.50367 24.3835L10.3867 14.0289C10.533 13.6386 10.9062 13.38 11.323 13.38H27.3992C28.0818 13.38 28.5638 14.0487 28.3479 14.6962L24.8246 25.2662C24.6885 25.6746 24.3063 25.95 23.8759 25.95H5.04333" stroke="#A3A3A3" stroke-width="1.5" stroke-linecap="round" stroke-linejoin="round"/>
</svg>
