<svg width="31" height="30" viewBox="0 0 31 30" fill="none" xmlns="http://www.w3.org/2000/svg">
<path d="M15.4682 27.067V9.61247M13.4369 8.56536C13.653 8.61385 13.8807 8.55442 14.0363 8.39884C14.1919 8.24327 14.2512 8.01548 14.2028 7.79948C14.0089 7.00725 13.2945 4.35444 12.5609 3.62086C11.6469 2.70691 10.1594 2.70311 9.25 3.61253C8.34063 4.5219 8.34431 6.0094 9.25833 6.92341C10.0039 7.669 12.6447 8.37144 13.4369 8.56536ZM15.6552 7.79941C15.6067 8.0155 15.6661 8.24321 15.8217 8.39878C15.9773 8.55436 16.205 8.6137 16.421 8.5653C17.2133 8.37135 19.8661 7.65694 20.5997 6.92335C21.5136 6.0094 21.5174 4.5219 20.608 3.61247C19.6986 2.70311 18.2111 2.70678 17.2971 3.6208C16.5515 4.36639 15.8491 7.00721 15.6552 7.79941ZM4.12273 15.7216H26.3773C26.8593 15.7216 27.25 15.3308 27.25 14.8488V10.4852C27.25 10.0032 26.8593 9.61247 26.3773 9.61247H4.12273C3.64073 9.61247 3.25 10.0032 3.25 10.4852V14.8488C3.25 15.3308 3.64073 15.7216 4.12273 15.7216ZM25.0682 15.7216V26.1943C25.0682 26.6763 24.6774 27.067 24.1955 27.067H6.30455C5.82255 27.067 5.43182 26.6763 5.43182 26.1943V15.7216H25.0682Z" stroke="#A3A3A3" stroke-width="1.5" stroke-linecap="round" stroke-linejoin="round"/>
</svg>
