<svg width="31" height="30" viewBox="0 0 31 30" fill="none" xmlns="http://www.w3.org/2000/svg">
<g clip-path="url(#clip0_1878_38127)">
<path d="M2.20511 10.0321L14.098 4.08677C14.2123 4.0297 14.3383 4 14.4661 4C14.5939 4 14.7199 4.0297 14.8342 4.08677L26.7271 10.0335C26.8639 10.1019 26.9789 10.2071 27.0593 10.3373C27.1396 10.4674 27.1822 10.6173 27.1822 10.7703C27.1822 10.9232 27.1396 11.0732 27.0593 11.2033C26.9789 11.3334 26.8639 11.4386 26.7271 11.5071L14.8342 17.4524C14.7199 17.5095 14.5939 17.5392 14.4661 17.5392C14.3383 17.5392 14.2123 17.5095 14.098 17.4524L2.20511 11.5057C2.06834 11.4372 1.95333 11.332 1.87295 11.2019C1.79257 11.0718 1.75 10.9219 1.75 10.7689C1.75 10.616 1.79257 10.466 1.87295 10.3359C1.95333 10.2058 2.06834 10.1006 2.20511 10.0321Z" stroke="#A3A3A3" stroke-width="1.5" stroke-linecap="round" stroke-linejoin="round"/>
<path d="M29.5741 16.2634V11.4566L26.8271 10.0833M4.85156 12.83V20.2627C4.85146 20.7823 4.99878 21.2914 5.27642 21.7306C5.55406 22.1699 5.95063 22.5214 6.42007 22.7444L13.2874 26.0047C13.6557 26.1796 14.0582 26.2703 14.4659 26.2703C14.8735 26.2703 15.2761 26.1796 15.6443 26.0047L22.5117 22.7444C22.9811 22.5214 23.3777 22.1699 23.6553 21.7306C23.933 21.2914 24.0803 20.7823 24.0802 20.2627V12.83" stroke="#A3A3A3" stroke-width="1.5" stroke-linecap="round" stroke-linejoin="round"/>
</g>
<defs>
<clipPath id="clip0_1878_38127">
<rect width="30" height="30" fill="white" transform="translate(0.75)"/>
</clipPath>
</defs>
</svg>
