<svg width="31" height="30" viewBox="0 0 31 30" fill="none" xmlns="http://www.w3.org/2000/svg">
<path d="M18.155 7.95252C18.6482 8.64698 19.0054 9.58804 19.0054 10.5036C19.0054 11.1773 18.8453 11.8414 18.5383 12.4411C18.2313 13.0408 17.7862 13.5589 17.2397 13.9528C16.6931 14.3468 16.0608 14.6052 15.3948 14.7068C14.7288 14.8084 14.0482 14.7502 13.4091 14.5372C12.7699 14.3242 12.1906 13.9623 11.7187 13.4814C11.2469 13.0005 10.8961 12.4144 10.6952 11.7713C10.4943 11.1283 10.4491 10.4467 10.5634 9.78274C10.6776 9.11879 10.9479 8.49148 11.3522 7.95252M11.3522 7.95252L14.7536 9.08633L23.2572 6.2518L14.7536 2L6.25 6.2518M11.3522 7.95252L6.25 6.2518M6.25 6.2518V11.9209M6.25 25.8101V22.7629C6.25 20.3777 8.05418 18.0746 10.4324 17.5913L14.755 21.751L19.0068 17.5772C21.419 18.0307 23.2586 20.355 23.2586 22.7629V25.8101C23.2586 26.7044 22.4961 27.43 21.5579 27.43H7.95214C7.01249 27.43 6.25 26.7044 6.25 25.8101Z" stroke="#A3A3A3" stroke-width="1.5" stroke-linecap="round" stroke-linejoin="round"/>
</svg>
