<svg width="31" height="30" viewBox="0 0 31 30" fill="none" xmlns="http://www.w3.org/2000/svg">
<path fill-rule="evenodd" clip-rule="evenodd" d="M4.81705 6.89463C5.98085 5.73118 7.5591 5.07759 9.20472 5.07759C10.8503 5.07759 12.4286 5.73118 13.5924 6.89463L15.4108 8.71145L17.2291 6.89463C17.8016 6.30189 18.4864 5.8291 19.2436 5.50385C20.0008 5.1786 20.8151 5.00739 21.6391 5.00023C22.4632 4.99307 23.2804 5.1501 24.0431 5.46214C24.8058 5.77419 25.4987 6.23501 26.0814 6.81771C26.6641 7.40041 27.1249 8.09333 27.437 8.85603C27.749 9.61873 27.906 10.4359 27.8989 11.26C27.8917 12.084 27.7205 12.8984 27.3953 13.6555C27.07 14.4127 26.5972 15.0975 26.0045 15.67L15.4108 26.2653L4.81705 15.67C3.65359 14.5062 3 12.9279 3 11.2823C3 9.63669 3.65359 8.05844 4.81705 6.89463Z" stroke="#A3A3A3" stroke-width="1.43263" stroke-linejoin="round"/>
</svg>
