<svg width="30" height="30" viewBox="0 0 30 30" fill="none" xmlns="http://www.w3.org/2000/svg">
<path d="M2.86719 14.0271H7.33188L9.98641 11.4849L12.5204 16.2186L15.2959 10.696L17.89 16.7445L20.8464 14.0271H27.0608" stroke="#A3A3A3" stroke-width="1.5" stroke-linecap="round" stroke-linejoin="round"/>
<path fill-rule="evenodd" clip-rule="evenodd" d="M3.89738 6.9784C5.11265 5.76351 6.76067 5.08102 8.47905 5.08102C10.1974 5.08102 11.8455 5.76351 13.0607 6.9784L14.9595 8.87555L16.8583 6.9784C17.4561 6.35945 18.1711 5.86576 18.9618 5.52613C19.7524 5.18649 20.6028 5.00772 21.4633 5.00024C22.3237 4.99277 23.1771 5.15673 23.9735 5.48258C24.7699 5.80842 25.4935 6.28961 26.1019 6.89808C26.7104 7.50654 27.1916 8.2301 27.5174 9.02652C27.8433 9.82294 28.0072 10.6763 27.9998 11.5368C27.9923 12.3972 27.8135 13.2476 27.4739 14.0382C27.1342 14.8289 26.6405 15.5439 26.0216 16.1417L14.9595 27.2055L3.89738 16.1417C2.68249 14.9265 2 13.2785 2 11.5601C2 9.84169 2.68249 8.19366 3.89738 6.9784V6.9784Z" stroke="#A3A3A3" stroke-width="1.5" stroke-linejoin="round"/>
</svg>
