<svg width="31" height="30" viewBox="0 0 31 30" fill="none" xmlns="http://www.w3.org/2000/svg">
<path d="M27.3734 13.1562L25.0625 10.8469V5.1875C25.0625 4.31094 24.3453 3.59375 23.4688 3.59375H21.875C20.9984 3.59375 20.2812 4.31094 20.2812 5.1875V6.06884L17.0938 2.88453C16.6587 2.47334 16.2602 2 15.5 2C14.7398 2 14.3413 2.47334 13.9062 2.88453L3.62656 13.1562C3.12931 13.6742 2.75 14.0519 2.75 14.75C2.75 15.6473 3.4385 16.3438 4.34375 16.3438H5.9375V25.9062C5.9375 26.7828 6.65469 27.5 7.53125 27.5H10.7188C11.599 27.5 12.3125 26.7865 12.3125 25.9062V19.5312C12.3125 18.6547 13.0297 17.9375 13.9062 17.9375H17.0938C17.9703 17.9375 18.6875 18.6547 18.6875 19.5312V25.9062C18.6875 26.7865 18.6042 27.5 19.4844 27.5H23.4688C24.3453 27.5 25.0625 26.7828 25.0625 25.9062V16.3438H26.6562C27.5615 16.3438 28.25 15.6473 28.25 14.75C28.25 14.0519 27.8707 13.6742 27.3734 13.1562Z" stroke="#A3A3A3" stroke-width="1.5" stroke-linejoin="round"/>
</svg>
