<svg width="30" height="30" viewBox="0 0 30 30" fill="none" xmlns="http://www.w3.org/2000/svg">
<path d="M17.2007 12.2993C16.2214 11.3203 14.8934 10.7703 13.5086 10.7703C12.1239 10.7703 10.7958 11.3203 9.81651 12.2993L4.59428 17.5215C4.09551 18.0032 3.69767 18.5795 3.42398 19.2166C3.15028 19.8537 3.00622 20.539 3.0002 21.2324C2.99417 21.9258 3.1263 22.6135 3.38888 23.2553C3.65146 23.897 4.03922 24.4801 4.52955 24.9704C5.01988 25.4608 5.60295 25.8485 6.24474 26.1111C6.88654 26.3737 7.5742 26.5058 8.2676 26.4998C8.961 26.4938 9.64626 26.3497 10.2834 26.076C10.9205 25.8023 11.4968 25.4045 11.9785 24.9057L13.4172 23.4683M12.4276 17.0724C13.4069 18.0514 14.735 18.6014 16.1197 18.6014C17.5045 18.6014 18.8325 18.0514 19.8118 17.0724L25.0341 11.8502C25.9853 10.8652 26.5117 9.54609 26.4998 8.17684C26.4879 6.80759 25.9387 5.4978 24.9704 4.52955C24.0022 3.56131 22.6924 3.0121 21.3232 3.0002C19.9539 2.9883 18.6348 3.51467 17.6498 4.46594L16.2137 5.90205" stroke="#A3A3A3" stroke-width="1.5" stroke-linecap="round" stroke-linejoin="round"/>
</svg>
