<svg width="30" height="30" viewBox="0 0 30 30" fill="none" xmlns="http://www.w3.org/2000/svg">
<path d="M14.3505 8.78115C14.8635 7.85913 15.12 7.40015 15.5034 7.40015C15.8868 7.40015 16.1432 7.85913 16.6562 8.78115L16.7885 9.01874C16.9343 9.28063 17.0072 9.41023 17.1206 9.49663C17.2354 9.58302 17.3771 9.61542 17.6606 9.67887L17.9171 9.73827C18.9134 9.96371 19.4115 10.0758 19.5303 10.4564C19.6491 10.8385 19.3089 11.2354 18.6299 12.0291L18.4544 12.2343C18.2613 12.4598 18.1641 12.5718 18.1209 12.7122C18.0777 12.8526 18.0926 13.0025 18.1209 13.3035L18.1479 13.5775C18.2505 14.6373 18.3018 15.1678 17.9927 15.4027C17.6822 15.6376 17.2151 15.4229 16.2823 14.9936L16.042 14.883C15.7761 14.7615 15.6438 14.7007 15.5034 14.7007C15.363 14.7007 15.2307 14.7615 14.9647 14.883L14.7244 14.9936C13.7916 15.4243 13.3245 15.6376 13.0141 15.4027C12.7036 15.1678 12.7562 14.6373 12.8588 13.5775L12.8858 13.3035C12.9142 13.0025 12.929 12.8526 12.8858 12.7122C12.8426 12.5732 12.7454 12.4598 12.5524 12.2343L12.3769 12.0291C11.6978 11.2354 11.3577 10.8385 11.4765 10.4564C11.5952 10.0758 12.0934 9.96371 13.0896 9.73827L13.3461 9.67887C13.6296 9.61542 13.7714 9.58437 13.8861 9.49663C13.9995 9.41023 14.0724 9.28063 14.2182 9.01874L14.3505 8.78115Z" stroke="#A3A3A3" stroke-width="1.5"/>
<path d="M24.9463 11.4497C24.9463 12.6906 24.7018 13.9194 24.2269 15.0659C23.7521 16.2124 23.056 17.2541 22.1785 18.1316C21.301 19.0091 20.2593 19.7052 19.1128 20.1801C17.9663 20.655 16.7375 20.8994 15.4966 20.8994C14.2556 20.8994 13.0268 20.655 11.8803 20.1801C10.7338 19.7052 9.69211 19.0091 8.81463 18.1316C7.93714 17.2541 7.24108 16.2124 6.76619 15.0659C6.2913 13.9194 6.04687 12.6906 6.04688 11.4497C6.04688 8.94348 7.04246 6.53991 8.81463 4.76775C10.5868 2.99559 12.9904 2 15.4966 2C18.0028 2 20.4063 2.99559 22.1785 4.76775C23.9507 6.53991 24.9463 8.94348 24.9463 11.4497Z" stroke="#A3A3A3" stroke-width="1.5"/>
<path d="M6.66589 15.5L3.3396 18.9437C2.61062 19.6984 2.24613 20.0764 2.11924 20.3963C1.8317 21.1239 2.07874 21.9325 2.70377 22.3159C2.97916 22.4833 3.47459 22.536 4.46546 22.6413C5.02569 22.7007 5.30513 22.729 5.53868 22.8195C5.79979 22.9207 6.03581 23.0774 6.23043 23.2788C6.42505 23.4802 6.57363 23.7214 6.66589 23.9858C6.75229 24.2288 6.78064 24.5177 6.83868 25.0982C6.93858 26.1242 6.98988 26.6371 7.15187 26.9206C7.52176 27.5686 8.30339 27.8224 9.00536 27.5254C9.31585 27.3958 9.68034 27.0192 10.4093 26.2632L15.5 20.9916L20.5907 26.2632C21.3197 27.0192 21.6841 27.3958 21.9946 27.5254C22.6966 27.8224 23.4782 27.5686 23.8481 26.9206C24.0101 26.6371 24.0601 26.1242 24.1613 25.0982C24.2194 24.5177 24.2477 24.2288 24.3341 23.9858C24.5285 23.4431 24.9362 23.0206 25.4613 22.8195C25.6949 22.729 25.9743 22.7007 26.5345 22.6413C27.5254 22.536 28.0208 22.4833 28.2962 22.3159C28.9213 21.9325 29.1683 21.1239 28.8808 20.3963C28.7539 20.0764 28.3894 19.6984 27.6604 18.9437L24.3341 15.5" stroke="#A3A3A3" stroke-width="1.5"/>
</svg>
