<svg width="31" height="30" viewBox="0 0 31 30" fill="none" xmlns="http://www.w3.org/2000/svg">
<path d="M20.4893 6.33724C20.4893 3.94234 18.1985 2 15.3736 2C12.5487 2 10.2578 3.94234 10.2578 6.33724V14.1727C10.2578 16.5676 12.5487 18.5099 15.3736 18.5099C18.1985 18.5099 20.4893 16.5676 20.4893 14.1727V6.33724Z" stroke="#A3A3A3" stroke-width="1.5" stroke-linecap="round" stroke-linejoin="round"/>
<path d="M6 13.0547C6 14.2861 6.24254 15.5055 6.71378 16.6432C7.18502 17.7809 7.87572 18.8146 8.74646 19.6854C9.61719 20.5561 10.6509 21.2468 11.7886 21.7181C12.9262 22.1893 14.1456 22.4319 15.377 22.4319M15.377 22.4319C16.6084 22.4319 17.8277 22.1893 18.9654 21.7181C20.1031 21.2468 21.1368 20.5561 22.0075 19.6854C22.8783 18.8146 23.569 17.7809 24.0402 16.6432C24.5114 15.5055 24.754 14.2861 24.754 13.0547M15.377 22.4319V28.0003M10.2612 28.0003H20.4927" stroke="#A3A3A3" stroke-width="1.5" stroke-linecap="round" stroke-linejoin="round"/>
</svg>
