<svg width="31" height="30" viewBox="0 0 31 30" fill="none" xmlns="http://www.w3.org/2000/svg">
<path d="M24.5556 25.5556H5.69444C4.97983 25.5556 4.29449 25.2717 3.78918 24.7664C3.28388 24.2611 3 23.5757 3 22.8611V6.69444C3 5.97983 3.28388 5.29449 3.78918 4.78918C4.29449 4.28388 4.97983 4 5.69444 4H19.1667C19.8813 4 20.5666 4.28388 21.0719 4.78918C21.5772 5.29449 21.8611 5.97983 21.8611 6.69444V8.04167M24.5556 25.5556C23.8409 25.5556 23.1556 25.2717 22.6503 24.7664C22.145 24.2611 21.8611 23.5757 21.8611 22.8611V8.04167M24.5556 25.5556C25.2702 25.5556 25.9555 25.2717 26.4608 24.7664C26.9661 24.2611 27.25 23.5757 27.25 22.8611V10.7361C27.25 10.0215 26.9661 9.33616 26.4608 8.83085C25.9555 8.32554 25.2702 8.04167 24.5556 8.04167H21.8611M16.4722 4H11.0833M8.38889 20.1667H16.4722M8.38889 9.38889H16.4722V14.7778H8.38889V9.38889Z" stroke="#A3A3A3" stroke-width="1.5" stroke-linecap="round" stroke-linejoin="round"/>
</svg>
