<svg width="31" height="30" viewBox="0 0 31 30" fill="none" xmlns="http://www.w3.org/2000/svg">
<path d="M19 12H24M19 16H24M19 20H24M5 26H25C26.6569 26 28 24.6569 28 23V9C28 7.34315 26.6569 6 25 6H5C3.34315 6 2 7.34315 2 9V23C2 24.6569 3.34315 26 5 26ZM13 12.5C13 13.8807 11.8807 15 10.5 15C9.11929 15 8 13.8807 8 12.5C8 11.1193 9.11929 10 10.5 10C11.8807 10 13 11.1193 13 12.5ZM14.7252 20.9485C13.4653 21.6196 12.0269 22 10.4998 22C8.97264 22 7.53432 21.6196 6.27441 20.9485C6.90648 19.2277 8.55977 18 10.4998 18C12.4398 18 14.0931 19.2277 14.7252 20.9485Z" stroke="#A3A3A3" stroke-width="1.5" stroke-linecap="round" stroke-linejoin="round"/>
</svg>
