<svg width="31" height="30" viewBox="0 0 31 30" fill="none" xmlns="http://www.w3.org/2000/svg">
<path d="M11.5024 26.25H8.45436C6.82793 26.25 5.63453 24.7215 6.029 23.1437L7.04229 19.0905C7.45964 17.4211 8.95957 16.25 10.6803 16.25H19.8245C21.5453 16.25 23.0452 17.4211 23.4625 19.0905L24.4758 23.1437C24.8703 24.7215 23.6769 26.25 22.0505 26.25H19.0024M15.2524 12.5C13.5266 12.5 12.1274 11.1009 12.1274 9.375V6.875C12.1274 5.14911 13.5266 3.75 15.2524 3.75C16.9783 3.75 18.3774 5.14911 18.3774 6.875V9.375C18.3774 11.1009 16.9783 12.5 15.2524 12.5Z" stroke="#A3A3A3" stroke-width="1.5" stroke-linecap="round" stroke-linejoin="round"/>
</svg>
