<svg width="31" height="30" viewBox="0 0 31 30" fill="none" xmlns="http://www.w3.org/2000/svg">
<path d="M25.4711 16.7259C25.9709 17.5778 26.2971 18.52 26.4309 19.4983C26.5648 20.4767 26.5037 21.4718 26.2511 22.4264C25.9985 23.3811 25.5595 24.2763 24.9592 25.0607C24.359 25.8451 23.6094 26.5031 22.7536 26.9968C21.8978 27.4906 20.9528 27.8103 19.9728 27.9375C18.9929 28.0648 17.9975 27.9971 17.0438 27.7384C16.0902 27.4797 15.1971 27.0351 14.4162 26.4301C13.6352 25.8251 12.9817 25.0717 12.4933 24.2133M25.4711 16.7259C24.4704 15.0203 22.8352 13.7794 20.9223 13.274C19.0093 12.7686 16.974 13.0398 15.2605 14.0284C13.5469 15.0171 12.2943 16.6428 11.7758 18.5509C11.2574 20.459 11.5153 22.4945 12.4933 24.2133M25.4711 16.7259L12.4933 24.2133M12.7955 7.42041L19.1458 3.67049C21.4836 2.29033 24.4733 3.10894 25.8233 5.50115C26.3391 6.41647 26.5591 7.46883 26.4529 8.51395C26.3467 9.55907 25.9195 10.5458 25.2301 11.3388M12.7955 7.42041L6.44521 11.1703C4.10741 12.5505 3.30566 15.6078 4.65564 17.9988C5.03288 18.6769 5.5669 19.2551 6.21318 19.6852C6.85946 20.1152 7.59927 20.3846 8.3709 20.4709M12.7955 7.42041L14.615 10.4877" stroke="#A3A3A3" stroke-width="1.5" stroke-linecap="round" stroke-linejoin="round"/>
</svg>
