<svg width="31" height="30" viewBox="0 0 31 30" fill="none" xmlns="http://www.w3.org/2000/svg">
<path d="M15.5 9.5H17.5C18.0523 9.5 18.5 9.05228 18.5 8.5V4.5C18.5 3.94772 18.0523 3.5 17.5 3.5H13.5C12.9477 3.5 12.5 3.94772 12.5 4.5V8.5C12.5 9.05228 12.9477 9.5 13.5 9.5H15.5ZM15.5 9.5V15M15.5 21.5H17.5C18.0523 21.5 18.5 21.9477 18.5 22.5V26.5C18.5 27.0523 18.0523 27.5 17.5 27.5H13.5C12.9477 27.5 12.5 27.0523 12.5 26.5V22.5C12.5 21.9477 12.9477 21.5 13.5 21.5H15.5ZM15.5 21.5V15M15.5 15H24.5C25.0523 15 25.5 15.4477 25.5 16V21.5M15.5 15H6.5C5.94772 15 5.5 15.4477 5.5 16V21.5M25.5 21.5H27.5C28.0523 21.5 28.5 21.9477 28.5 22.5V26.5C28.5 27.0523 28.0523 27.5 27.5 27.5H23.5C22.9477 27.5 22.5 27.0523 22.5 26.5V22.5C22.5 21.9477 22.9477 21.5 23.5 21.5H25.5ZM5.5 21.5H7.5C8.05228 21.5 8.5 21.9477 8.5 22.5V26.5C8.5 27.0523 8.05228 27.5 7.5 27.5H3.5C2.94772 27.5 2.5 27.0523 2.5 26.5V22.5C2.5 21.9477 2.94772 21.5 3.5 21.5H5.5Z" stroke="#A3A3A3" stroke-width="1.5"/>
</svg>
