<svg width="30" height="30" viewBox="0 0 30 30" fill="none" xmlns="http://www.w3.org/2000/svg">
<path d="M25.8 18.64V15C25.8 13.7588 25.3069 12.5684 24.4293 11.6907C23.5516 10.8131 22.3612 10.32 21.12 10.32H19.04C18.6263 10.32 18.2295 10.1556 17.9369 9.86309C17.6444 9.57053 17.48 9.17374 17.48 8.76V6.68C17.48 5.43879 16.9869 4.24841 16.1093 3.37074C15.2316 2.49307 14.0412 2 12.8 2H10.2M17.4537 20.6937L19.56 22.8M17.4537 20.6937C17.7917 20.3556 18.06 19.9546 18.2429 19.513C18.4258 19.0713 18.52 18.598 18.52 18.12C18.52 17.1546 18.1365 16.2288 17.4539 15.5461C16.7712 14.8635 15.8454 14.48 14.88 14.48C13.9146 14.48 12.9888 14.8635 12.3061 15.5461C11.6235 16.2288 11.24 17.1546 11.24 18.12C11.24 18.598 11.3342 19.0713 11.5171 19.513C11.7 19.9546 11.9681 20.3559 12.3061 20.6939C12.6441 21.0319 13.0454 21.3 13.487 21.4829C13.9287 21.6658 14.402 21.76 14.88 21.76C15.358 21.76 15.8313 21.6658 16.273 21.4829C16.7146 21.3 17.1156 21.0317 17.4537 20.6937ZM13.32 2H6.56C5.69888 2 5 2.69888 5 3.56V26.44C5 27.3011 5.69888 28 6.56 28H24.24C25.1011 28 25.8 27.3011 25.8 26.44V14.48C25.8 11.1701 24.4851 7.99576 22.1447 5.65531C19.8042 3.31485 16.6299 2 13.32 2Z" stroke="#A3A3A3" stroke-width="1.5" stroke-linecap="round" stroke-linejoin="round"/>
</svg>
