<svg width="31" height="30" viewBox="0 0 31 30" fill="none" id="shield" xmlns="http://www.w3.org/2000/svg">
<path d="M25.1839 6.20278L16.0328 2.86704L15.6489 2.71941C15.5603 2.68988 15.4422 2.68988 15.3537 2.71941L5.8187 6.20275C5.64155 6.2618 5.52344 6.43895 5.52344 6.61611V14.4091C5.52344 19.1913 8.15078 23.5011 12.3719 25.7153L15.2649 27.2209C15.324 27.2504 15.383 27.2799 15.4716 27.2799C15.5602 27.2799 15.6192 27.2504 15.6783 27.2209L16.0326 27.0437L18.6009 25.7153C22.8222 23.5013 25.4493 19.1915 25.4493 14.4091L25.4491 6.61609C25.4491 6.43893 25.331 6.26178 25.1834 6.20273L25.1839 6.20278ZM15.0589 26.1288L12.8154 24.948C8.88918 22.9111 6.43926 18.8665 6.43926 14.4386V6.94036L15.059 3.7818L15.0589 26.1288Z" fill="#A3A3A3" stroke="#A3A3A3" stroke-width="0.5"/>
</svg>
