<svg width="30" height="30" viewBox="0 0 30 30" fill="none" xmlns="http://www.w3.org/2000/svg">
<path d="M13.4201 3.94067C13.8287 2.68644 15.6031 2.68644 16.0103 3.94067L18.0789 10.3058C18.1679 10.5788 18.341 10.8167 18.5733 10.9854C18.8057 11.1542 19.0854 11.2452 19.3726 11.2454H26.0659C27.3855 11.2454 27.9329 12.934 26.8666 13.7103L21.4521 17.6432C21.2195 17.8123 21.0464 18.0506 20.9576 18.3241C20.8688 18.5976 20.8688 18.8922 20.9577 19.1657L23.025 25.5308C23.4335 26.7864 21.9968 27.8295 20.9305 27.0533L15.516 23.1204C15.2832 22.9512 15.0029 22.8601 14.7152 22.8601C14.4275 22.8601 14.1472 22.9512 13.9145 23.1204L8.49992 27.0533C7.43363 27.8295 5.99692 26.785 6.40546 25.5308L8.47269 19.1657C8.56158 18.8922 8.56163 18.5976 8.47283 18.3241C8.38403 18.0506 8.21094 17.8123 7.97835 17.6432L2.5638 13.7103C1.49614 12.934 2.04631 11.2454 3.36454 11.2454H10.0565C10.3439 11.2455 10.6239 11.1546 10.8566 10.9858C11.0892 10.8171 11.2625 10.579 11.3515 10.3058L13.4201 3.94067Z" stroke="#A3A3A3" stroke-width="1.5" stroke-linecap="round" stroke-linejoin="round"/>
</svg>
