<svg width="31" height="30" viewBox="0 0 31 30" fill="none" xmlns="http://www.w3.org/2000/svg">
<path d="M14 22.0006H18M18 22.0006H19.0858C19.351 22.0006 19.6054 21.8952 19.7929 21.7077L26 15.5006C27.6956 13.7538 30 15.5 28.5 17.5006C27.1784 19.2632 21.1992 26.0707 19.7956 27.6651C19.606 27.8805 19.3357 28.0006 19.0488 28.0006H4C3.44772 28.0006 3 27.5529 3 27.0006V23.0006C3 22.4483 3.44772 22.0006 4 22.0006H6.96482C7.29917 22.0006 7.6114 21.8335 7.79687 21.5553L9.20313 19.4459C9.3886 19.1677 9.70083 19.0006 10.0352 19.0006H17C17.5523 19.0006 18 19.4483 18 20.0006V22.0006Z" stroke="#A3A3A3" stroke-width="1.5" stroke-linecap="round"/>
<path d="M24.0909 6.27273C24.0909 4.46545 22.5644 3 20.6815 3C19.2742 3 18.0655 3.81891 17.5455 4.98764C17.0255 3.81891 15.8167 3 14.4087 3C12.5273 3 11 4.46545 11 6.27273C11 11.5236 17.5455 15 17.5455 15C17.5455 15 24.0909 11.5236 24.0909 6.27273Z" stroke="#A3A3A3" stroke-width="1.5" stroke-linecap="round" stroke-linejoin="round"/>
</svg>
