<svg width="30" height="30" viewBox="0 0 30 30" fill="none" xmlns="http://www.w3.org/2000/svg">
<path d="M18.1429 7.85693H21V4.99979H18.1429V7.85693Z" stroke="#A3A3A3" stroke-width="1.5" stroke-linecap="round" stroke-linejoin="round"/>
<path d="M4.85775 22.1427H3.42918C3.0503 22.1427 2.68694 21.9922 2.41903 21.7243C2.15112 21.4564 2.00061 21.093 2.00061 20.7141V16.1141C1.9911 15.7878 2.09365 15.468 2.2912 15.2081C2.48874 14.9482 2.76936 14.7638 3.08632 14.6855L7.7149 13.5713L11.572 8.4284C11.7051 8.25097 11.8777 8.10697 12.076 8.00779C12.2744 7.9086 12.4931 7.85697 12.7149 7.85697H21.1149C21.3812 7.85512 21.6426 7.9277 21.8698 8.06653C22.097 8.20536 22.2808 8.40492 22.4006 8.64268L24.8578 13.5713L26.9149 14.5855C27.1554 14.7034 27.3578 14.8864 27.4993 15.1137C27.6407 15.341 27.7155 15.6035 27.7149 15.8713V20.7141C27.7149 21.093 27.5644 21.4564 27.2965 21.7243C27.0286 21.9922 26.6652 22.1427 26.2864 22.1427H24.8578" stroke="#A3A3A3" stroke-width="1.5" stroke-linecap="round" stroke-linejoin="round"/>
<path d="M19 22.1432L11.5714 22.1432M16.5714 7.85742V13.5717M8 13.5717H25.1429" stroke="#A3A3A3" stroke-width="1.5" stroke-linecap="round" stroke-linejoin="round"/>
<path d="M21.8571 25.0004C23.4351 25.0004 24.7143 23.7212 24.7143 22.1433C24.7143 20.5653 23.4351 19.2861 21.8571 19.2861C20.2792 19.2861 19 20.5653 19 22.1433C19 23.7212 20.2792 25.0004 21.8571 25.0004Z" stroke="#A3A3A3" stroke-width="1.5" stroke-linecap="round" stroke-linejoin="round"/>
<path d="M8.70871 24.9999C10.2867 24.9999 11.5659 23.7207 11.5659 22.1428C11.5659 20.5648 10.2867 19.2856 8.70871 19.2856C7.13075 19.2856 5.85156 20.5648 5.85156 22.1428C5.85156 23.7207 7.13075 24.9999 8.70871 24.9999Z" stroke="#A3A3A3" stroke-width="1.5" stroke-linecap="round" stroke-linejoin="round"/>
</svg>
