<svg width="30" height="30" viewBox="0 0 30 30" fill="none" xmlns="http://www.w3.org/2000/svg">
<path d="M15 15V15.6667M15 10V10.6667M15 20V20.6667M24.3333 24.6667C25.0406 24.6667 25.7189 24.3857 26.219 23.8856C26.719 23.3855 27 22.7072 27 22V18C26.2928 18 25.6145 17.719 25.1144 17.219C24.6143 16.7189 24.3333 16.0406 24.3333 15.3333C24.3333 14.6261 24.6143 13.9478 25.1144 13.4477C25.6145 12.9476 26.2928 12.6667 27 12.6667V8.66667C27 7.95942 26.719 7.28115 26.219 6.78105C25.7189 6.28095 25.0406 6 24.3333 6H5.66667C4.95942 6 4.28115 6.28095 3.78105 6.78105C3.28095 7.28115 3 7.95942 3 8.66667V12.6667C3.70724 12.6667 4.38552 12.9476 4.88562 13.4477C5.38572 13.9478 5.66667 14.6261 5.66667 15.3333C5.66667 16.0406 5.38572 16.7189 4.88562 17.219C4.38552 17.719 3.70724 18 3 18V22C3 22.7072 3.28095 23.3855 3.78105 23.8856C4.28115 24.3857 4.95942 24.6667 5.66667 24.6667H24.3333Z" stroke="#A3A3A3" stroke-width="1.5" stroke-linecap="round" stroke-linejoin="round"/>
</svg>
