<svg width="31" height="30" viewBox="0 0 31 30" fill="none" xmlns="http://www.w3.org/2000/svg">
<path d="M19 24.5034C20.1106 24.8267 21.285 25 22.4999 25C24.4716 25 26.3367 24.5435 27.9952 23.7304C27.9983 23.654 27.9999 23.5772 27.9999 23.5C27.9999 20.4624 25.5375 18 22.4999 18C20.6092 18 18.9414 18.954 17.9514 20.4069M19 24.5034V24.5C19 23.0161 18.6198 21.6211 17.9514 20.4069M19 24.5034C19 24.5509 18.9996 24.5984 18.9988 24.6458C16.5165 26.1403 13.6086 27 10.5 27C7.39137 27 4.48352 26.1403 2.00123 24.6458C2.00041 24.5973 2 24.5487 2 24.5C2 19.8056 5.80558 16 10.5 16C13.7106 16 16.5054 17.78 17.9514 20.4069M15 7.5C15 9.98528 12.9853 12 10.5 12C8.01472 12 6 9.98528 6 7.5C6 5.01472 8.01472 3 10.5 3C12.9853 3 15 5.01472 15 7.5ZM26 10.5C26 12.433 24.433 14 22.5 14C20.567 14 19 12.433 19 10.5C19 8.567 20.567 7 22.5 7C24.433 7 26 8.567 26 10.5Z" stroke="#A3A3A3" stroke-width="1.5" stroke-linecap="round" stroke-linejoin="round"/>
</svg>
