<svg width="20" height="16" viewBox="0 0 20 16" fill="none" xmlns="http://www.w3.org/2000/svg">
<path id="user-cog" d="M10.625 14.5H1.5V13.7188C1.5 12.2188 2.6875 11 4.1875 11C4.65625 11 5.375 11.5 7 11.5C8.3125 11.5 9.1875 11.1562 9.5 11.0625C9.5 10.8438 9.5 10.2812 9.6875 9.53125C8.78125 9.5625 8.40625 10 7 10C5.5 10 5.09375 9.5 4.1875 9.5C1.875 9.5 0 11.4062 0 13.7188V14.5C0 15.3438 0.65625 16 1.5 16H12.1875C11.5625 15.625 11.0312 15.0938 10.625 14.5ZM7 9C9.46875 9 11.5 7 11.5 4.5C11.5 2.03125 9.46875 0 7 0C4.5 0 2.5 2.03125 2.5 4.5C2.5 7 4.5 9 7 9ZM7 1.5C8.625 1.5 10 2.875 10 4.5C10 6.15625 8.625 7.5 7 7.5C5.34375 7.5 4 6.15625 4 4.5C4 2.875 5.34375 1.5 7 1.5ZM19.0625 11.6875C19.1562 11.25 19.1562 10.7812 19.0625 10.3438L19.875 9.875C19.9688 9.84375 20 9.71875 19.9688 9.625C19.75 8.9375 19.4062 8.34375 18.9375 7.8125C18.875 7.75 18.75 7.71875 18.6562 7.78125L17.8438 8.25C17.5 7.96875 17.125 7.71875 16.6875 7.59375V6.65625C16.6875 6.53125 16.625 6.4375 16.5312 6.4375C15.8125 6.28125 15.125 6.28125 14.4375 6.4375C14.3438 6.4375 14.2812 6.53125 14.2812 6.65625V7.59375C13.8438 7.71875 13.4688 7.96875 13.125 8.25L12.3125 7.78125C12.2188 7.71875 12.0938 7.75 12.0312 7.8125C11.5625 8.34375 11.1875 8.9375 11 9.625C10.9688 9.71875 11 9.84375 11.0938 9.875L11.9062 10.3438C11.8125 10.7812 11.8125 11.25 11.9062 11.6875L11.0938 12.1562C11 12.1875 10.9688 12.3125 11 12.4062C11.1875 13.0938 11.5625 13.6875 12.0312 14.2188C12.0938 14.2812 12.2188 14.3125 12.3125 14.25L13.125 13.7812C13.4688 14.0625 13.8438 14.3125 14.2812 14.4375V15.375C14.2812 15.5 14.3438 15.5938 14.4375 15.5938C15.1562 15.75 15.8438 15.75 16.5312 15.5938C16.625 15.5938 16.6875 15.5 16.6875 15.375V14.4375C17.125 14.3125 17.5 14.0625 17.8438 13.7812L18.6562 14.25C18.75 14.3125 18.875 14.2812 18.9375 14.2188C19.4062 13.6875 19.75 13.0938 19.9688 12.4062C20 12.3125 19.9688 12.1875 19.875 12.1562L19.0625 11.6875ZM15.5 12.5312C14.6562 12.5312 13.9688 11.8438 13.9688 11C13.9688 10.1875 14.6562 9.5 15.5 9.5C16.3125 9.5 17 10.1875 17 11C17 11.8438 16.3125 12.5312 15.5 12.5312Z" fill="#94A3B8"/>
</svg>
