<svg width="24" height="24" viewBox="0 0 24 24" fill="none" xmlns="http://www.w3.org/2000/svg">
<g id="Frame">
<path id="Vector" d="M16.8808 4.34526C14.1361 5.44386 11.2062 6.00569 8.24978 6.00026H7.49978C6.18252 5.99835 4.91267 6.49171 3.9422 7.38243C2.97174 8.27315 2.37157 9.49614 2.2608 10.8087C2.15002 12.1213 2.53672 13.4276 3.34418 14.4684C4.15163 15.5092 5.32083 16.2084 6.61978 16.4273C6.9508 17.782 7.41229 19.1015 7.99778 20.3673C8.46178 21.3713 9.67178 21.6873 10.5798 21.1633L11.2368 20.7843C12.1168 20.2763 12.4018 19.1913 12.0088 18.3163C11.7726 17.7915 11.563 17.2551 11.3808 16.7093C13.2988 16.9673 15.1408 17.4593 16.8808 18.1553C17.6243 15.9291 18.0022 13.5973 17.9998 11.2503C17.9998 8.83626 17.6068 6.51526 16.8808 4.34526ZM18.2598 3.74026C19.0834 6.15834 19.5024 8.69576 19.4998 11.2503C19.5026 13.9764 19.0253 16.6817 18.0898 19.2423C18.0559 19.3348 18.0406 19.4331 18.0447 19.5315C18.0488 19.6299 18.0722 19.7266 18.1137 19.816C18.1551 19.9054 18.2138 19.9857 18.2863 20.0524C18.3588 20.1191 18.4438 20.1709 18.5363 20.2048C18.6288 20.2386 18.7271 20.254 18.8255 20.2499C18.924 20.2458 19.0206 20.2223 19.11 20.1808C19.1994 20.1394 19.2797 20.0807 19.3464 20.0082C19.4131 19.9357 19.4649 19.8508 19.4988 19.7583C20.257 17.6882 20.7329 15.5254 20.9138 13.3283C21.451 12.77 21.7507 12.025 21.7498 11.2503C21.7498 10.4433 21.4308 9.71026 20.9138 9.17226C20.7318 6.97529 20.2558 4.81267 19.4988 2.74226C19.4649 2.64974 19.4131 2.5648 19.3464 2.49229C19.2797 2.41979 19.1994 2.36113 19.11 2.31967C18.9295 2.23593 18.7231 2.22733 18.5363 2.29576C18.3494 2.36418 18.1974 2.50403 18.1137 2.68453C18.03 2.86504 18.0214 3.07141 18.0898 3.25826C18.1488 3.41826 18.2058 3.57826 18.2598 3.74026Z" fill="white"/>
</g>
</svg>
