<svg width="20" height="20" viewBox="0 0 20 20" fill="none" xmlns="http://www.w3.org/2000/svg">
<g id="EyeOutline">
<path id="Vector" d="M3 10.5C3 10.1022 3.15804 9.72064 3.43934 9.43934C3.72064 9.15804 4.10218 9 4.5 9C4.89782 9 5.27936 9.15804 5.56066 9.43934C5.84196 9.72064 6 10.1022 6 10.5C6 10.8978 5.84196 11.2794 5.56066 11.5607C5.27936 11.842 4.89782 12 4.5 12C4.10218 12 3.72064 11.842 3.43934 11.5607C3.15804 11.2794 3 10.8978 3 10.5ZM8.5 10.5C8.5 10.1022 8.65804 9.72064 8.93934 9.43934C9.22064 9.15804 9.60218 9 10 9C10.3978 9 10.7794 9.15804 11.0607 9.43934C11.342 9.72064 11.5 10.1022 11.5 10.5C11.5 10.8978 11.342 11.2794 11.0607 11.5607C10.7794 11.842 10.3978 12 10 12C9.60218 12 9.22064 11.842 8.93934 11.5607C8.65804 11.2794 8.5 10.8978 8.5 10.5ZM15.5 9C15.1022 9 14.7206 9.15804 14.4393 9.43934C14.158 9.72064 14 10.1022 14 10.5C14 10.8978 14.158 11.2794 14.4393 11.5607C14.7206 11.842 15.1022 12 15.5 12C15.8978 12 16.2794 11.842 16.5607 11.5607C16.842 11.2794 17 10.8978 17 10.5C17 10.1022 16.842 9.72064 16.5607 9.43934C16.2794 9.15804 15.8978 9 15.5 9Z" fill="#94A3B8"/>
</g>
</svg>
