<svg width="83" height="82" viewBox="0 0 83 82" fill="none" xmlns="http://www.w3.org/2000/svg">
<g id="Frame">
<path id="Vector" d="M51.75 6.09521L49.0303 8.81488C48.4928 9.35244 48.1267 10.0373 47.9784 10.7829C47.8301 11.5286 47.9062 12.3014 48.1971 13.0038C48.4881 13.7061 48.9807 14.3064 49.6128 14.7288C50.2449 15.1511 50.9881 15.3766 51.7483 15.3766C52.5085 15.3766 53.2517 15.1511 53.8838 14.7288C54.5159 14.3064 55.0085 13.7061 55.2994 13.0038C55.5904 12.3014 55.6665 11.5286 55.5182 10.7829C55.3699 10.0373 55.0038 9.35244 54.4663 8.81488L51.75 6.09521ZM41.5 6.09521L38.7803 8.81488C38.2428 9.35244 37.8767 10.0373 37.7284 10.7829C37.5801 11.5286 37.6562 12.3014 37.9471 13.0038C38.2381 13.7061 38.7307 14.3064 39.3628 14.7288C39.9949 15.1511 40.7381 15.3766 41.4983 15.3766C42.2585 15.3766 43.0017 15.1511 43.6338 14.7288C44.2659 14.3064 44.7585 13.7061 45.0494 13.0038C45.3404 12.3014 45.4165 11.5286 45.2682 10.7829C45.1199 10.0373 44.7538 9.35244 44.2163 8.81488L41.5 6.09521ZM31.25 6.09521L28.5303 8.81488C27.9928 9.35244 27.6267 10.0373 27.4784 10.7829C27.3301 11.5286 27.4062 12.3014 27.6971 13.0038C27.9881 13.7061 28.4807 14.3064 29.1128 14.7288C29.7449 15.1511 30.4881 15.3766 31.2483 15.3766C32.0085 15.3766 32.7517 15.1511 33.3838 14.7288C34.0159 14.3064 34.5085 13.7061 34.7994 13.0038C35.0904 12.3014 35.1665 11.5286 35.0182 10.7829C34.8699 10.0373 34.5038 9.35244 33.9663 8.81488L31.25 6.09521ZM33.8125 25.7855C35.514 25.7171 37.2223 25.6659 38.9375 25.642V23.0624C38.9375 22.3828 39.2075 21.731 39.688 21.2504C40.1686 20.7699 40.8204 20.4999 41.5 20.4999C42.1796 20.4999 42.8314 20.7699 43.312 21.2504C43.7925 21.731 44.0625 22.3828 44.0625 23.0624V25.642C45.7777 25.6659 47.486 25.7137 49.1875 25.7855V23.0624C49.1875 22.3828 49.4575 21.731 49.938 21.2504C50.4186 20.7699 51.0704 20.4999 51.75 20.4999C52.4296 20.4999 53.0814 20.7699 53.562 21.2504C54.0425 21.731 54.3125 22.3828 54.3125 23.0624V26.069L55.3614 26.1442C60.6572 26.544 64.5625 31.0198 64.5625 36.2097V39.6879C49.2331 38.0139 33.7669 38.0139 18.4375 39.6879V36.2097C18.4375 31.0198 22.3427 26.544 27.6386 26.1442L28.6875 26.069V23.0624C28.6875 22.3828 28.9575 21.731 29.438 21.2504C29.9186 20.7699 30.5704 20.4999 31.25 20.4999C31.9296 20.4999 32.5814 20.7699 33.062 21.2504C33.5425 21.731 33.8125 22.3828 33.8125 23.0624V25.7855ZM41.5 43.5624C33.054 43.5624 24.7583 44.191 16.6472 45.4074C11.6793 46.1488 8.1875 50.4709 8.1875 55.3704V56.6824C11.1884 56.1246 14.2894 56.5613 17.0196 57.926C18.2555 58.544 19.6182 58.8657 21 58.8657C22.3818 58.8657 23.7445 58.544 24.9804 57.926C26.9271 56.9529 29.0736 56.4463 31.25 56.4463C33.4264 56.4463 35.5729 56.9529 37.5196 57.926C38.7555 58.544 40.1182 58.8657 41.5 58.8657C42.8818 58.8657 44.2445 58.544 45.4804 57.926C47.4271 56.9529 49.5736 56.4463 51.75 56.4463C53.9264 56.4463 56.0729 56.9529 58.0196 57.926C59.2555 58.544 60.6182 58.8657 62 58.8657C63.3818 58.8657 64.7445 58.544 65.9804 57.926C68.7106 56.5613 71.8116 56.1246 74.8125 56.6824V55.3704C74.8125 50.4709 71.3207 46.1454 66.3528 45.404C58.1256 44.1752 49.8185 43.5597 41.5 43.5624ZM74.8125 61.9475C72.6394 61.2941 70.2989 61.4958 68.2696 62.5112C66.3229 63.4843 64.1764 63.9909 62 63.9909C59.8236 63.9909 57.6771 63.4843 55.7304 62.5112C54.4946 61.893 53.1318 61.5712 51.75 61.5712C50.3682 61.5712 49.0054 61.893 47.7696 62.5112C45.8229 63.4843 43.6764 63.9909 41.5 63.9909C39.3236 63.9909 37.1771 63.4843 35.2304 62.5112C33.9946 61.893 32.6318 61.5712 31.25 61.5712C29.8682 61.5712 28.5054 61.893 27.2696 62.5112C25.3229 63.4843 23.1764 63.9909 21 63.9909C18.8236 63.9909 16.6771 63.4843 14.7304 62.5112C12.7011 61.4958 10.3606 61.2941 8.1875 61.9475V70.4686C8.1875 74.0083 11.0575 76.8749 14.5938 76.8749H68.4062C71.9425 76.8749 74.8125 74.0049 74.8125 70.4686V61.9475Z" fill="#CBD5E1"/>
</g>
</svg>
