<svg width="20" height="20" viewBox="0 0 20 20" fill="none" xmlns="http://www.w3.org/2000/svg">
<circle cx="10" cy="10" r="10" fill="#C4DFFF"/>
<path d="M11.5264 4.06018C12.4105 4.06029 13.2586 4.41162 13.8838 5.03674C14.5091 5.66203 14.8604 6.51085 14.8604 7.39514C14.8603 8.27929 14.509 9.12737 13.8838 9.75256C13.2586 10.3778 12.4105 10.729 11.5264 10.7291H8.20215V11.8492H12.6025V13.15H8.20215V15.9391H6.74414V13.15H5.84961V11.8492H6.74414V10.7291H5.84961V9.27112H6.74414V4.06018H11.5264ZM8.20215 9.27112H11.5264C12.0238 9.27101 12.5008 9.07309 12.8525 8.72131C13.2043 8.36952 13.4022 7.89263 13.4023 7.39514C13.4023 6.89751 13.2044 6.41987 12.8525 6.06799C12.5008 5.71628 12.0238 5.5183 11.5264 5.51819H8.20215V9.27112Z" fill="#0066CC" stroke="#0066CC" stroke-width="0.3"/>
</svg>
