<svg width="24" height="24" viewBox="0 0 24 24" fill="none" xmlns="http://www.w3.org/2000/svg">
<g clip-path="url(#clip0_21874_66052)">
<path d="M7.12418 2.98028C7.02213 2.69991 7.03564 2.39048 7.16174 2.12007C7.28783 1.84965 7.51619 1.64041 7.79656 1.53836C8.07693 1.43631 8.38636 1.44982 8.65678 1.57592C8.92719 1.70201 9.13644 1.93036 9.23849 2.21074L12.0496 9.93407C12.5908 9.90948 13.1387 9.94417 13.6845 10.0403L11.1611 3.10725C11.059 2.82687 11.0725 2.51744 11.1986 2.24703C11.3247 1.97662 11.5531 1.76737 11.8334 1.66532C12.1138 1.56327 12.4232 1.57678 12.6937 1.70288C12.9641 1.82897 13.1733 2.05733 13.2754 2.3377L17.016 12.6151C16.4088 12.9602 15.8902 13.4416 15.501 14.0216C15.1119 14.6015 14.8628 15.2639 14.7737 15.9566C15.7306 14.9515 16.9078 14.1825 18.2126 13.7099C18.3996 13.6419 18.5518 13.5024 18.6358 13.3221C18.7199 13.1418 18.7289 12.9355 18.6609 12.7486L17.8859 10.6193C17.5849 9.78224 17.6273 8.86016 18.0037 8.05427C18.1342 7.79136 18.3624 7.58988 18.6394 7.49283C18.9164 7.39578 19.2204 7.41084 19.4865 7.53481C19.7525 7.65878 19.9596 7.88183 20.0635 8.15636C20.1674 8.43089 20.1599 8.73516 20.0426 9.00423C19.9802 9.13718 19.9447 9.28111 19.938 9.42779C19.9314 9.57447 19.9536 9.72104 20.0036 9.85911L21.0317 12.6838L21.027 12.6855C21.4874 14.1233 21.3889 15.6818 20.7511 17.0501L19.7136 19.2752C19.0411 20.7171 17.8234 21.8328 16.3283 22.377L14.4349 23.0662C12.5657 23.7465 10.5028 23.6565 8.70007 22.8158C6.89731 21.9752 5.50233 20.4528 4.82201 18.5837L1.61557 9.77405C1.51353 9.49368 1.52704 9.18425 1.65313 8.91383C1.77923 8.64342 2.00758 8.43417 2.28796 8.33213C2.56833 8.23008 2.87776 8.24359 3.14817 8.36968C3.41859 8.49578 3.62784 8.72413 3.72988 9.00451L5.61749 14.1907C5.89516 13.6086 6.23974 13.0788 6.63679 12.6055L4.11336 5.6724C4.01131 5.39202 4.02482 5.08259 4.15092 4.81218C4.27702 4.54177 4.50537 4.33252 4.78574 4.23047C5.06612 4.12842 5.37555 4.14193 5.64596 4.26803C5.91638 4.39413 6.12562 4.62248 6.22767 4.90285L8.45969 11.0353C8.89064 10.772 9.34492 10.5524 9.81759 10.3804L7.12418 2.98028Z" fill="white"/>
</g>
<defs>
<clipPath id="clip0_21874_66052">
<rect width="24" height="24" fill="white"/>
</clipPath>
</defs>
</svg>
