<svg width="24" height="24" viewBox="0 0 24 24" fill="none" xmlns="http://www.w3.org/2000/svg">
<path d="M21.571 7.13381C21.571 8.86431 18.9804 10.2676 15.7855 10.2676C12.5906 10.2676 10 8.86431 10 7.13381C10 5.4033 12.5906 4 15.7855 4C18.9804 4 21.571 5.4033 21.571 7.13381Z" fill="white"/>
<path d="M15.7855 11.2326C17.5115 11.2326 19.1218 10.8559 20.3355 10.1983C20.7821 9.96113 21.1927 9.66156 21.5549 9.30859C21.5652 9.38638 21.571 9.46544 21.571 9.54516C21.571 11.2757 18.9804 12.679 15.7855 12.679C12.5906 12.679 10 11.2757 10 9.54516C10 9.46544 10.0058 9.38638 10.0161 9.30859C10.3783 9.66155 10.7889 9.96111 11.2355 10.1983C12.4485 10.8559 14.0595 11.2326 15.7855 11.2326Z" fill="white"/>
<path d="M15.7855 13.6427C17.5115 13.6427 19.1218 13.266 20.3355 12.6084C20.7821 12.3713 21.1927 12.0717 21.5549 11.7188C21.5652 11.7965 21.571 11.8756 21.571 11.9553C21.571 13.6858 18.9804 15.0891 15.7855 15.0891C12.5906 15.0891 10 13.6858 10 11.9553C10 11.8756 10.0058 11.7965 10.0161 11.7188C10.3782 12.0717 10.7889 12.3713 11.2355 12.6084C12.4485 13.266 14.0595 13.6427 15.7855 13.6427Z" fill="white"/>
<path d="M15.7855 16.0529C17.5115 16.0529 19.1218 15.6762 20.3355 15.0186C20.7821 14.7814 21.1927 14.4819 21.5549 14.1289C21.5652 14.2067 21.571 14.2858 21.571 14.3655C21.571 16.096 18.9804 17.4993 15.7855 17.4993C12.5906 17.4993 10 16.096 10 14.3655C10 14.2858 10.0058 14.2067 10.0161 14.1289C10.3782 14.4819 10.7889 14.7814 11.2355 15.0186C12.4485 15.6762 14.0595 16.0529 15.7855 16.0529Z" fill="white"/>
<path d="M2 18V13L13.5 12.5V17.5L13 19L8 20.5L4.5 20L2 18Z" fill="#60B8F8"/>
<path d="M13.571 13.1338C13.571 14.8643 10.9804 16.2676 7.78549 16.2676C4.59061 16.2676 2 14.8643 2 13.1338C2 11.4033 4.59061 10 7.78549 10C10.9804 10 13.571 11.4033 13.571 13.1338Z" fill="white"/>
<path d="M7.78549 17.2326C9.5115 17.2326 11.1218 16.8559 12.3355 16.1983C12.7821 15.9611 13.1927 15.6616 13.5549 15.3086C13.5652 15.3864 13.571 15.4654 13.571 15.5452C13.571 17.2757 10.9804 18.679 7.78549 18.679C4.59061 18.679 2 17.2757 2 15.5452C2 15.4654 2.00579 15.3864 2.01607 15.3086C2.37825 15.6615 2.78886 15.9611 3.23552 16.1983C4.44855 16.8559 6.05949 17.2326 7.78549 17.2326Z" fill="white"/>
<path d="M7.78549 19.6427C9.5115 19.6427 11.1218 19.266 12.3355 18.6084C12.7821 18.3713 13.1927 18.0717 13.5549 17.7188C13.5652 17.7965 13.571 17.8756 13.571 17.9553C13.571 19.6858 10.9804 21.0891 7.78549 21.0891C4.59061 21.0891 2 19.6858 2 17.9553C2 17.8756 2.00579 17.7965 2.01607 17.7188C2.37825 18.0717 2.78886 18.3713 3.23552 18.6084C4.44855 19.266 6.05949 19.6427 7.78549 19.6427Z" fill="white"/>
</svg>
