<svg width="24" height="24" viewBox="0 0 24 24" fill="none" xmlns="http://www.w3.org/2000/svg">
<path d="M11.8017 19.2753C11.8974 19.2766 11.9748 19.2854 12.0107 19.2948L12.167 19.3553C12.2232 19.3819 12.2779 19.413 12.3144 19.4393L12.3574 19.4774C12.3888 19.5063 12.4298 19.546 12.4785 19.5926C12.5761 19.6863 12.7008 19.8078 12.8271 19.9344L13.0791 20.1864L12.5664 20.6981C12.2813 20.982 12.0982 21.1623 11.9804 21.2743C11.9214 21.3304 11.8817 21.3671 11.8554 21.3895C11.8514 21.393 11.8476 21.3959 11.8447 21.3983C11.8426 21.3985 11.8398 21.3991 11.8369 21.3993L11.7822 21.4003C11.7583 21.4004 11.743 21.3998 11.7314 21.3993C11.7234 21.3989 11.719 21.3985 11.7177 21.3983C11.7253 21.3998 11.7292 21.4032 11.7216 21.3983C11.707 21.3888 11.6791 21.3676 11.6259 21.3182L11.413 21.1102C11.1486 20.8486 11.0607 20.7521 11.0078 20.6669L10.9609 20.579C10.9157 20.4856 10.8952 20.4265 10.8847 20.3329L10.8769 20.2245C10.8653 19.9472 10.9387 19.7522 11.1181 19.5614L11.2236 19.4637C11.3336 19.3764 11.4567 19.317 11.581 19.2899L11.6728 19.2782C11.7104 19.2754 11.7547 19.2746 11.8017 19.2753ZM17.5615 3.01159C18.8888 3.13036 20.0517 3.67057 20.9736 4.5946L21.1367 4.76452C21.5068 5.16702 21.805 5.60694 22.0332 6.08679L22.1328 6.30944C22.3531 6.8252 22.4802 7.33005 22.5468 7.9569L22.5576 8.1571C22.5626 8.323 22.5626 8.53811 22.5576 8.70886L22.5459 8.92077C22.4379 10.0173 22.0466 10.9945 21.3847 11.8251L21.248 11.9891C21.2156 12.0268 21.1298 12.1192 21.0166 12.2372L20.622 12.6415L20.3261 12.9393L19.5039 12.12C18.9629 11.5807 18.6776 11.2972 18.498 11.1346C18.352 11.0025 18.2638 10.94 18.1679 10.8866L18.0664 10.8339C17.8631 10.7317 17.6553 10.6663 17.4345 10.6346L17.2089 10.6141C16.4971 10.5846 15.8415 10.9021 15.4248 11.4706L15.3447 11.5878C15.258 11.7235 15.1808 11.8944 15.125 12.0633C14.9874 11.965 14.8498 11.8858 14.6943 11.8251L14.5722 11.7821C14.3408 11.7071 14.1729 11.6825 13.913 11.6825C13.4105 11.6825 12.9677 11.8399 12.5937 12.1503L12.4375 12.2919C12.1676 12.5618 11.9949 12.8573 11.8935 13.2186L11.8545 13.3778C11.8292 13.4962 11.82 13.6489 11.8212 13.788C11.8225 13.9281 11.8342 14.0817 11.8603 14.204L11.8984 14.3573C11.9641 14.5871 12.0641 14.7905 12.2021 14.9833C11.5121 15.2065 10.9958 15.7595 10.8144 16.4647L10.7812 16.6171C10.7627 16.7181 10.7558 16.8536 10.7558 16.9755C10.7558 17.0982 10.7624 17.2342 10.7802 17.3378L10.8271 17.5409C10.8705 17.693 10.9344 17.8482 11.0058 17.9823L10.1455 18.8426C9.79066 19.1968 9.52783 19.4558 9.34762 19.6307C9.25743 19.7183 9.18916 19.7841 9.14058 19.829L9.0859 19.8788C8.74913 20.0909 8.35024 20.0758 8.04781 19.8563L7.92379 19.7489C7.74506 19.5659 7.66127 19.3487 7.67183 19.079L7.68551 18.9452C7.70534 18.8216 7.74641 18.7168 7.81148 18.6151C7.81438 18.6118 7.81947 18.6069 7.82613 18.5995C7.84438 18.5793 7.87089 18.5498 7.90719 18.5116C7.97983 18.4352 8.08616 18.3256 8.2275 18.1815C8.51022 17.8934 8.93156 17.4699 9.50094 16.8993L10.6875 15.703C10.8407 15.5473 10.9662 15.4185 11.0546 15.327C11.0986 15.2815 11.1347 15.2438 11.1601 15.2167C11.1726 15.2033 11.1842 15.1908 11.1933 15.1805C11.1977 15.1756 11.2034 15.1687 11.2089 15.162C11.2116 15.1587 11.2161 15.1536 11.2207 15.1473C11.2231 15.1441 11.236 15.1263 11.248 15.1024L11.2754 15.037C11.2826 15.0144 11.2876 14.9912 11.292 14.9686L11.3046 14.8426C11.3048 14.459 10.9536 14.1974 10.5996 14.2645L10.5293 14.2831C10.4788 14.2991 10.4413 14.3254 10.4336 14.3309C10.4185 14.3416 10.4038 14.3539 10.3916 14.3641C10.3666 14.3851 10.3352 14.4133 10.2978 14.4481C10.2221 14.5187 10.1081 14.6291 9.94137 14.7928L8.14742 16.577C7.26254 17.4603 6.70592 18.0138 6.36031 18.3534C6.18753 18.5232 6.0684 18.6383 5.98824 18.7137L5.87984 18.8124C5.73678 18.9069 5.56363 18.9587 5.37594 18.9589C5.13141 18.9589 4.91722 18.8741 4.73824 18.6991L4.66402 18.619C4.6173 18.5635 4.55568 18.4528 4.51656 18.3573L4.48629 18.2694C4.47862 18.2399 4.46966 18.1566 4.46969 18.0487C4.46974 17.9405 4.47875 17.8577 4.48629 17.829L4.55074 17.6649C4.58034 17.6014 4.60874 17.5504 4.62691 17.5233C4.63658 17.5131 4.65128 17.4986 4.66988 17.4794C4.70875 17.4393 4.76508 17.3814 4.83687 17.3085C4.98066 17.1623 5.1864 16.955 5.43746 16.702C5.93984 16.1958 6.62628 15.5069 7.37496 14.7577L9.58199 12.5419C9.78479 12.3362 9.92088 12.1963 10.0078 12.1044C10.0506 12.059 10.0841 12.0229 10.1084 11.995C10.1204 11.9812 10.1327 11.9662 10.1435 11.952C10.1499 11.9437 10.1724 11.9142 10.1894 11.8758L10.2216 11.786C10.3362 11.3712 9.96671 11.0104 9.56734 11.0575L9.48141 11.0741C9.38975 11.0987 9.32147 11.1581 9.27242 11.201C9.21156 11.2544 9.11769 11.3426 8.96676 11.4901L7.05367 13.3924C6.08587 14.3582 5.52668 14.9151 5.19918 15.2362C5.0352 15.397 4.93097 15.4961 4.86422 15.5575L4.79293 15.6219C4.61891 15.7212 4.49661 15.7537 4.30855 15.7538C4.18484 15.7538 4.09891 15.7416 4.00387 15.7059L3.90328 15.662C3.42886 15.4299 3.251 14.8446 3.52633 14.369L3.60348 14.2801C3.67542 14.2021 3.79829 14.075 4.01363 13.8563C4.44399 13.4193 5.2335 12.6281 6.70016 11.16L9.64547 8.21081L10.4287 8.99304L11.1533 9.71374C11.2499 9.80889 11.3318 9.88827 11.3916 9.94616C11.4425 9.99551 11.4952 10.0463 11.5205 10.0663L11.6337 10.1512C11.9013 10.3381 12.191 10.4577 12.5127 10.5126L12.7002 10.5331C12.7642 10.5359 12.8344 10.5342 12.9218 10.5311L13.1504 10.5145C13.3624 10.4894 13.5362 10.437 13.7509 10.3358L13.9541 10.2284C14.019 10.1882 14.0853 10.1397 14.164 10.0731C14.3083 9.9511 14.5007 9.76202 14.8252 9.43932L15.2744 8.9862C15.3307 8.92782 15.3775 8.87752 15.4121 8.83972C15.4291 8.82115 15.4451 8.80323 15.458 8.78796C15.4643 8.78049 15.4722 8.77124 15.4795 8.76159C15.4828 8.75709 15.5015 8.73266 15.5166 8.70104L15.5556 8.58972C15.5648 8.55267 15.5704 8.51556 15.5732 8.48132C15.576 8.44746 15.5765 8.40987 15.5732 8.37097L15.5498 8.25182L15.5097 8.16784C15.4998 8.15265 15.4891 8.13882 15.4804 8.1278C15.4628 8.1055 15.4403 8.0795 15.415 8.05163C15.3634 7.99482 15.2845 7.91225 15.1709 7.79577L13.9414 6.55749C13.5242 6.13985 13.1448 5.75802 12.8701 5.48034C12.775 5.38423 12.692 5.30057 12.625 5.23229C12.7198 5.13653 12.8408 5.0173 12.9658 4.8944C13.2535 4.6116 13.5469 4.32927 13.6201 4.26843L13.9511 4.01159C14.7384 3.44621 15.6199 3.11773 16.6142 3.01745L16.8183 3.00573C17.0669 2.99728 17.4172 2.99877 17.5615 3.01159ZM12.9013 16.0731C12.9924 16.0795 13.0645 16.0893 13.0879 16.0956L13.2373 16.1532C13.2875 16.1766 13.3378 16.2042 13.3779 16.2303C13.3797 16.232 13.3823 16.234 13.3847 16.2362C13.4005 16.2508 13.4232 16.273 13.4521 16.3007C13.51 16.356 13.5914 16.4341 13.6884 16.5292C13.8826 16.7193 14.1419 16.976 14.4189 17.2528L15.2168 18.0497L14.707 18.5585C14.2853 18.9792 14.105 19.1603 14.0009 19.243C13.9552 19.2794 13.9513 19.2741 13.9687 19.2694L13.915 19.2684C13.8943 19.2685 13.8804 19.2684 13.872 19.2684C13.863 19.262 13.8503 19.2494 13.831 19.2333C13.7685 19.181 13.68 19.0982 13.5439 18.9637L12.9658 18.3846C12.5594 17.9766 12.3373 17.7522 12.2099 17.618C12.1459 17.5506 12.1101 17.51 12.0898 17.4852L12.0605 17.4442C11.9042 17.1645 11.8962 16.8532 12.0322 16.577L12.0879 16.4774C12.2269 16.2583 12.4352 16.1239 12.7441 16.0692L12.7871 16.0682C12.8192 16.0683 12.8594 16.0702 12.9013 16.0731ZM13.9345 12.8632C14.0975 12.8668 14.2535 12.9122 14.4004 12.9989L14.4589 13.0497C14.5093 13.095 14.5856 13.1666 14.7031 13.2811C14.9386 13.5105 15.3316 13.9019 16.0009 14.5702L17.3486 15.9139L16.8505 16.4081C16.4307 16.8238 16.2453 17.0064 16.1377 17.0917C16.0896 17.1297 16.0825 17.1278 16.0957 17.1239L16.0488 17.1229C16.0282 17.1229 16.0131 17.1228 16.0029 17.1229C15.9881 17.1125 15.9596 17.0904 15.9121 17.0487C15.8182 16.9662 15.6813 16.8347 15.4687 16.6239L14.5673 15.7216C13.9648 15.1182 13.6145 14.7661 13.4082 14.5536C13.3052 14.4476 13.2404 14.3791 13.1992 14.3329L13.1474 14.2704C12.8343 13.7583 13.0624 13.1137 13.6103 12.9178L13.706 12.8885C13.7222 12.8841 13.737 12.8795 13.749 12.8768C13.7547 12.8755 13.76 12.8746 13.7636 12.8739C13.7671 12.8732 13.7695 12.8729 13.7695 12.8729L13.9345 12.8632ZM16.9951 11.8065C17.1084 11.7947 17.2501 11.7992 17.3379 11.8212L17.4961 11.8758C17.5477 11.8988 17.598 11.9265 17.6435 11.9569L17.708 12.0165C17.7591 12.0641 17.8302 12.1325 17.9209 12.2206C18.1023 12.3968 18.3591 12.6507 18.6865 12.9774L19.3925 13.6854C19.4252 13.7185 19.4556 13.7499 19.4834 13.7782C19.4804 13.7812 19.4776 13.7848 19.4746 13.788L18.9687 14.2958C18.6888 14.5747 18.5079 14.7535 18.3906 14.8651C18.3318 14.921 18.2921 14.9577 18.2656 14.9803C18.2613 14.984 18.2569 14.9866 18.2539 14.9891C18.2522 14.9892 18.25 14.9899 18.248 14.9901H18.1875C18.161 14.99 18.1424 14.9897 18.1289 14.9891L18.1279 14.9882C18.1234 14.9842 18.1171 14.9797 18.1113 14.9745C18.0748 14.9416 18.0216 14.8911 17.9482 14.8202L17.2675 14.1464C17.0292 13.9079 16.8058 13.6829 16.6396 13.5126C16.5567 13.4276 16.4885 13.3563 16.4394 13.3046C16.4149 13.2787 16.3949 13.2584 16.3818 13.244C16.3781 13.2399 16.375 13.2366 16.373 13.2342C16.3454 13.1944 16.3187 13.1474 16.2959 13.1005L16.2392 12.9589C16.2281 12.9203 16.2166 12.8416 16.2129 12.7469C16.2091 12.6525 16.2147 12.5744 16.2226 12.536L16.2587 12.4071C16.3609 12.1181 16.592 11.9043 16.8945 11.8241L16.9951 11.8065ZM6.88277 3.01159L7.26363 3.05651C8.14465 3.19106 8.96419 3.52973 9.67281 4.05358L9.83101 4.17272C10.0094 4.32293 10.4302 4.74346 12.7109 7.01159L13.8691 8.16491C13.9757 8.27136 14.0675 8.3641 14.1416 8.43835C14.0613 8.51859 13.9659 8.61556 13.8681 8.71179C13.7458 8.83213 13.6212 8.95254 13.5244 9.04577C13.4761 9.09223 13.4355 9.13166 13.4052 9.16003L13.374 9.1903C13.2925 9.2488 13.1903 9.29537 13.0752 9.32409L12.956 9.34655C12.7721 9.37042 12.5578 9.3248 12.3974 9.23327L12.332 9.19128C12.3448 9.20064 12.3443 9.20154 12.3095 9.16882C12.2832 9.14406 12.2458 9.10842 12.1992 9.06335C12.1061 8.97324 11.9767 8.84622 11.8203 8.69225L10.6347 7.5155C10.1826 7.06412 9.76534 6.64993 9.45894 6.34655C9.30597 6.19508 9.18014 6.06984 9.09078 5.98229C9.04645 5.93886 9.01015 5.90362 8.98433 5.87878C8.97171 5.86663 8.95987 5.85568 8.95113 5.84753C8.94703 5.84371 8.94193 5.83883 8.93746 5.83483C8.93524 5.83286 8.93128 5.83 8.92769 5.82702L8.90426 5.80847L8.80855 5.75671C8.7109 5.71683 8.60779 5.70964 8.52144 5.71862C8.43421 5.72777 8.33657 5.75665 8.24996 5.81335L8.16793 5.87975C7.99976 6.04619 7.94292 6.31733 8.03512 6.53796L8.08297 6.61999C8.09471 6.63577 8.10823 6.65278 8.12105 6.66784C8.14708 6.69837 8.1813 6.73617 8.22164 6.77917C8.30347 6.86637 8.42083 6.98573 8.57027 7.13561L8.80758 7.37389L3.24215 12.9403L3.01266 12.7128C2.51713 12.2184 2.28226 11.964 2.0859 11.701L1.89351 11.4257C1.49468 10.818 1.23415 10.1793 1.09957 9.47546L1.04976 9.16979C0.859369 7.77745 1.21994 6.35572 2.05172 5.22057L2.17476 5.06139C2.47314 4.68855 2.85561 4.31676 3.22652 4.04479L3.5273 3.84069C4.2437 3.38692 5.0669 3.10224 5.91891 3.01843L6.13082 3.00573C6.38268 2.99654 6.72561 2.99834 6.88277 3.01159Z" fill="white"/>
</svg>
